<mxfile host="Electron" modified="2023-08-20T18:08:12.916Z" agent="Mozilla/5.0 (Windows NT 10.0; Win64; x64) AppleWebKit/537.36 (KHTML, like Gecko) draw.io/21.6.8 Chrome/114.0.5735.289 Electron/25.5.0 Safari/537.36" etag="BH2pgkF5Vn6ARb0VCTD1" version="21.6.8" type="device">
  <diagram name="Page-1" id="xg7CgBrB9_Lk4aRXQVMj">
    <mxGraphModel dx="3590" dy="3473" grid="0" gridSize="10" guides="1" tooltips="1" connect="1" arrows="1" fold="1" page="0" pageScale="1" pageWidth="1500" pageHeight="2000" background="none" math="0" shadow="0">
      <root>
        <mxCell id="0" />
        <mxCell id="1" parent="0" />
        <mxCell id="YQK4Ysnu9C63STyvXHJZ-3" value="Groups" style="swimlane;fontStyle=0;childLayout=stackLayout;horizontal=1;startSize=26;horizontalStack=0;resizeParent=1;resizeParentMax=0;resizeLast=0;collapsible=1;marginBottom=0;align=center;fontSize=14;fillColor=#a20025;fontColor=#ffffff;strokeColor=#6F0000;swimlaneLine=0;rounded=1;swimlaneFillColor=#FF3333;glass=0;" parent="1" vertex="1">
          <mxGeometry x="95" y="-1266" width="160" height="176" as="geometry" />
        </mxCell>
        <mxCell id="YQK4Ysnu9C63STyvXHJZ-7" value="Super Admin" style="text;strokeColor=#B20000;fillColor=#FF1600;spacingLeft=4;spacingRight=4;overflow=hidden;rotatable=0;points=[[0,0.5],[1,0.5]];portConstraint=eastwest;fontSize=12;whiteSpace=wrap;html=1;rounded=0;glass=0;shadow=0;fontColor=#ffffff;" parent="YQK4Ysnu9C63STyvXHJZ-3" vertex="1">
          <mxGeometry y="26" width="160" height="30" as="geometry" />
        </mxCell>
        <mxCell id="YQK4Ysnu9C63STyvXHJZ-4" value="Admin" style="text;strokeColor=#B20000;fillColor=#C91200;spacingLeft=4;spacingRight=4;overflow=hidden;rotatable=0;points=[[0,0.5],[1,0.5]];portConstraint=eastwest;fontSize=12;whiteSpace=wrap;html=1;fontColor=#ffffff;" parent="YQK4Ysnu9C63STyvXHJZ-3" vertex="1">
          <mxGeometry y="56" width="160" height="30" as="geometry" />
        </mxCell>
        <mxCell id="YQK4Ysnu9C63STyvXHJZ-5" value="Gym Owner" style="text;strokeColor=#B20000;fillColor=#A10E00;spacingLeft=4;spacingRight=4;overflow=hidden;rotatable=0;points=[[0,0.5],[1,0.5]];portConstraint=eastwest;fontSize=12;whiteSpace=wrap;html=1;fontColor=#ffffff;" parent="YQK4Ysnu9C63STyvXHJZ-3" vertex="1">
          <mxGeometry y="86" width="160" height="30" as="geometry" />
        </mxCell>
        <mxCell id="YQK4Ysnu9C63STyvXHJZ-6" value="Staff" style="text;strokeColor=#B20000;fillColor=#820B00;spacingLeft=4;spacingRight=4;overflow=hidden;rotatable=0;points=[[0,0.5],[1,0.5]];portConstraint=eastwest;fontSize=12;whiteSpace=wrap;html=1;fontColor=#ffffff;" parent="YQK4Ysnu9C63STyvXHJZ-3" vertex="1">
          <mxGeometry y="116" width="160" height="30" as="geometry" />
        </mxCell>
        <mxCell id="JSXAZN5KyDYzW5ihduTY-1" value="Subscriber" style="text;strokeColor=#B20000;fillColor=#4D0700;spacingLeft=4;spacingRight=4;overflow=hidden;rotatable=0;points=[[0,0.5],[1,0.5]];portConstraint=eastwest;fontSize=12;whiteSpace=wrap;html=1;glass=0;fontColor=#ffffff;" vertex="1" parent="YQK4Ysnu9C63STyvXHJZ-3">
          <mxGeometry y="146" width="160" height="30" as="geometry" />
        </mxCell>
        <mxCell id="YQK4Ysnu9C63STyvXHJZ-22" value="" style="group;" parent="1" vertex="1" connectable="0">
          <mxGeometry x="869" y="-54" width="1090" height="780" as="geometry" />
        </mxCell>
        <mxCell id="YQK4Ysnu9C63STyvXHJZ-21" value="" style="rounded=1;whiteSpace=wrap;html=1;fillColor=#02021F;fontColor=#ffffff;strokeColor=#006EAF;" parent="YQK4Ysnu9C63STyvXHJZ-22" vertex="1">
          <mxGeometry width="1090" height="780" as="geometry" />
        </mxCell>
        <mxCell id="2C0zCBsF6jFKkmQKUa8t-2" value="User" style="shape=table;startSize=30;container=1;collapsible=1;childLayout=tableLayout;fixedRows=1;rowLines=0;fontStyle=1;align=center;resizeLast=1;html=1;fillColor=#1ba1e2;fontColor=#ffffff;strokeColor=default;rounded=1;swimlaneLine=0;shadow=0;gradientColor=none;swimlaneFillColor=default;fixDash=0;movable=1;resizable=1;rotatable=1;deletable=1;editable=1;locked=0;connectable=1;" parent="YQK4Ysnu9C63STyvXHJZ-22" vertex="1">
          <mxGeometry x="80" y="320" width="180" height="240" as="geometry" />
        </mxCell>
        <mxCell id="2C0zCBsF6jFKkmQKUa8t-3" value="" style="shape=tableRow;horizontal=0;startSize=0;swimlaneHead=0;swimlaneBody=0;fillColor=none;collapsible=0;dropTarget=0;points=[[0,0.5],[1,0.5]];portConstraint=eastwest;top=0;left=0;right=0;bottom=1;shadow=0;swimlaneLine=0;" parent="2C0zCBsF6jFKkmQKUa8t-2" vertex="1">
          <mxGeometry y="30" width="180" height="30" as="geometry" />
        </mxCell>
        <mxCell id="2C0zCBsF6jFKkmQKUa8t-4" value="PK" style="shape=partialRectangle;connectable=0;fillColor=none;top=0;left=0;bottom=0;right=0;fontStyle=1;overflow=hidden;whiteSpace=wrap;html=1;shadow=0;swimlaneLine=0;" parent="2C0zCBsF6jFKkmQKUa8t-3" vertex="1">
          <mxGeometry width="30" height="30" as="geometry">
            <mxRectangle width="30" height="30" as="alternateBounds" />
          </mxGeometry>
        </mxCell>
        <mxCell id="2C0zCBsF6jFKkmQKUa8t-5" value="Id" style="shape=partialRectangle;connectable=0;fillColor=none;top=0;left=0;bottom=0;right=0;align=left;spacingLeft=6;fontStyle=5;overflow=hidden;whiteSpace=wrap;html=1;shadow=0;swimlaneLine=0;" parent="2C0zCBsF6jFKkmQKUa8t-3" vertex="1">
          <mxGeometry x="30" width="150" height="30" as="geometry">
            <mxRectangle width="150" height="30" as="alternateBounds" />
          </mxGeometry>
        </mxCell>
        <mxCell id="2C0zCBsF6jFKkmQKUa8t-35" style="shape=tableRow;horizontal=0;startSize=0;swimlaneHead=0;swimlaneBody=0;fillColor=none;collapsible=0;dropTarget=0;points=[[0,0.5],[1,0.5]];portConstraint=eastwest;top=0;left=0;right=0;bottom=0;shadow=0;swimlaneLine=0;" parent="2C0zCBsF6jFKkmQKUa8t-2" vertex="1">
          <mxGeometry y="60" width="180" height="30" as="geometry" />
        </mxCell>
        <mxCell id="2C0zCBsF6jFKkmQKUa8t-36" style="shape=partialRectangle;connectable=0;fillColor=none;top=0;left=0;bottom=0;right=0;editable=1;overflow=hidden;whiteSpace=wrap;html=1;shadow=0;swimlaneLine=0;" parent="2C0zCBsF6jFKkmQKUa8t-35" vertex="1">
          <mxGeometry width="30" height="30" as="geometry">
            <mxRectangle width="30" height="30" as="alternateBounds" />
          </mxGeometry>
        </mxCell>
        <mxCell id="2C0zCBsF6jFKkmQKUa8t-37" value="username" style="shape=partialRectangle;connectable=0;fillColor=none;top=0;left=0;bottom=0;right=0;align=left;spacingLeft=6;overflow=hidden;whiteSpace=wrap;html=1;shadow=0;swimlaneLine=0;" parent="2C0zCBsF6jFKkmQKUa8t-35" vertex="1">
          <mxGeometry x="30" width="150" height="30" as="geometry">
            <mxRectangle width="150" height="30" as="alternateBounds" />
          </mxGeometry>
        </mxCell>
        <mxCell id="2C0zCBsF6jFKkmQKUa8t-6" value="" style="shape=tableRow;horizontal=0;startSize=0;swimlaneHead=0;swimlaneBody=0;fillColor=none;collapsible=0;dropTarget=0;points=[[0,0.5],[1,0.5]];portConstraint=eastwest;top=0;left=0;right=0;bottom=0;shadow=0;swimlaneLine=0;" parent="2C0zCBsF6jFKkmQKUa8t-2" vertex="1">
          <mxGeometry y="90" width="180" height="30" as="geometry" />
        </mxCell>
        <mxCell id="2C0zCBsF6jFKkmQKUa8t-7" value="" style="shape=partialRectangle;connectable=0;fillColor=none;top=0;left=0;bottom=0;right=0;editable=1;overflow=hidden;whiteSpace=wrap;html=1;shadow=0;swimlaneLine=0;" parent="2C0zCBsF6jFKkmQKUa8t-6" vertex="1">
          <mxGeometry width="30" height="30" as="geometry">
            <mxRectangle width="30" height="30" as="alternateBounds" />
          </mxGeometry>
        </mxCell>
        <mxCell id="2C0zCBsF6jFKkmQKUa8t-8" value="first_name" style="shape=partialRectangle;connectable=0;fillColor=none;top=0;left=0;bottom=0;right=0;align=left;spacingLeft=6;overflow=hidden;whiteSpace=wrap;html=1;shadow=0;swimlaneLine=0;" parent="2C0zCBsF6jFKkmQKUa8t-6" vertex="1">
          <mxGeometry x="30" width="150" height="30" as="geometry">
            <mxRectangle width="150" height="30" as="alternateBounds" />
          </mxGeometry>
        </mxCell>
        <mxCell id="2C0zCBsF6jFKkmQKUa8t-9" value="" style="shape=tableRow;horizontal=0;startSize=0;swimlaneHead=0;swimlaneBody=0;fillColor=none;collapsible=0;dropTarget=0;points=[[0,0.5],[1,0.5]];portConstraint=eastwest;top=0;left=0;right=0;bottom=0;shadow=0;swimlaneLine=0;" parent="2C0zCBsF6jFKkmQKUa8t-2" vertex="1">
          <mxGeometry y="120" width="180" height="30" as="geometry" />
        </mxCell>
        <mxCell id="2C0zCBsF6jFKkmQKUa8t-10" value="" style="shape=partialRectangle;connectable=0;fillColor=none;top=0;left=0;bottom=0;right=0;editable=1;overflow=hidden;whiteSpace=wrap;html=1;shadow=0;swimlaneLine=0;" parent="2C0zCBsF6jFKkmQKUa8t-9" vertex="1">
          <mxGeometry width="30" height="30" as="geometry">
            <mxRectangle width="30" height="30" as="alternateBounds" />
          </mxGeometry>
        </mxCell>
        <mxCell id="2C0zCBsF6jFKkmQKUa8t-11" value="last_name" style="shape=partialRectangle;connectable=0;fillColor=none;top=0;left=0;bottom=0;right=0;align=left;spacingLeft=6;overflow=hidden;whiteSpace=wrap;html=1;shadow=0;swimlaneLine=0;" parent="2C0zCBsF6jFKkmQKUa8t-9" vertex="1">
          <mxGeometry x="30" width="150" height="30" as="geometry">
            <mxRectangle width="150" height="30" as="alternateBounds" />
          </mxGeometry>
        </mxCell>
        <mxCell id="2C0zCBsF6jFKkmQKUa8t-12" value="" style="shape=tableRow;horizontal=0;startSize=0;swimlaneHead=0;swimlaneBody=0;fillColor=none;collapsible=0;dropTarget=0;points=[[0,0.5],[1,0.5]];portConstraint=eastwest;top=0;left=0;right=0;bottom=0;shadow=0;swimlaneLine=0;" parent="2C0zCBsF6jFKkmQKUa8t-2" vertex="1">
          <mxGeometry y="150" width="180" height="30" as="geometry" />
        </mxCell>
        <mxCell id="2C0zCBsF6jFKkmQKUa8t-13" value="" style="shape=partialRectangle;connectable=0;fillColor=none;top=0;left=0;bottom=0;right=0;editable=1;overflow=hidden;whiteSpace=wrap;html=1;shadow=0;swimlaneLine=0;" parent="2C0zCBsF6jFKkmQKUa8t-12" vertex="1">
          <mxGeometry width="30" height="30" as="geometry">
            <mxRectangle width="30" height="30" as="alternateBounds" />
          </mxGeometry>
        </mxCell>
        <mxCell id="2C0zCBsF6jFKkmQKUa8t-14" value="age" style="shape=partialRectangle;connectable=0;fillColor=none;top=0;left=0;bottom=0;right=0;align=left;spacingLeft=6;overflow=hidden;whiteSpace=wrap;html=1;shadow=0;swimlaneLine=0;" parent="2C0zCBsF6jFKkmQKUa8t-12" vertex="1">
          <mxGeometry x="30" width="150" height="30" as="geometry">
            <mxRectangle width="150" height="30" as="alternateBounds" />
          </mxGeometry>
        </mxCell>
        <mxCell id="2C0zCBsF6jFKkmQKUa8t-32" style="shape=tableRow;horizontal=0;startSize=0;swimlaneHead=0;swimlaneBody=0;fillColor=none;collapsible=0;dropTarget=0;points=[[0,0.5],[1,0.5]];portConstraint=eastwest;top=0;left=0;right=0;bottom=0;shadow=0;swimlaneLine=0;" parent="2C0zCBsF6jFKkmQKUa8t-2" vertex="1">
          <mxGeometry y="180" width="180" height="30" as="geometry" />
        </mxCell>
        <mxCell id="2C0zCBsF6jFKkmQKUa8t-33" style="shape=partialRectangle;connectable=0;fillColor=none;top=0;left=0;bottom=0;right=0;editable=1;overflow=hidden;whiteSpace=wrap;html=1;shadow=0;swimlaneLine=0;" parent="2C0zCBsF6jFKkmQKUa8t-32" vertex="1">
          <mxGeometry width="30" height="30" as="geometry">
            <mxRectangle width="30" height="30" as="alternateBounds" />
          </mxGeometry>
        </mxCell>
        <mxCell id="2C0zCBsF6jFKkmQKUa8t-34" value="email" style="shape=partialRectangle;connectable=0;fillColor=none;top=0;left=0;bottom=0;right=0;align=left;spacingLeft=6;overflow=hidden;whiteSpace=wrap;html=1;shadow=0;swimlaneLine=0;" parent="2C0zCBsF6jFKkmQKUa8t-32" vertex="1">
          <mxGeometry x="30" width="150" height="30" as="geometry">
            <mxRectangle width="150" height="30" as="alternateBounds" />
          </mxGeometry>
        </mxCell>
        <mxCell id="Ct2uauPp7oG3WegLJJji-5" style="shape=tableRow;horizontal=0;startSize=0;swimlaneHead=0;swimlaneBody=0;fillColor=none;collapsible=0;dropTarget=0;points=[[0,0.5],[1,0.5]];portConstraint=eastwest;top=0;left=0;right=0;bottom=0;shadow=0;swimlaneLine=0;" parent="2C0zCBsF6jFKkmQKUa8t-2" vertex="1">
          <mxGeometry y="210" width="180" height="30" as="geometry" />
        </mxCell>
        <mxCell id="Ct2uauPp7oG3WegLJJji-6" style="shape=partialRectangle;connectable=0;fillColor=none;top=0;left=0;bottom=0;right=0;editable=1;overflow=hidden;whiteSpace=wrap;html=1;shadow=0;swimlaneLine=0;" parent="Ct2uauPp7oG3WegLJJji-5" vertex="1">
          <mxGeometry width="30" height="30" as="geometry">
            <mxRectangle width="30" height="30" as="alternateBounds" />
          </mxGeometry>
        </mxCell>
        <mxCell id="Ct2uauPp7oG3WegLJJji-7" value="Gym" style="shape=partialRectangle;connectable=0;fillColor=none;top=0;left=0;bottom=0;right=0;align=left;spacingLeft=6;overflow=hidden;whiteSpace=wrap;html=1;shadow=0;swimlaneLine=0;" parent="Ct2uauPp7oG3WegLJJji-5" vertex="1">
          <mxGeometry x="30" width="150" height="30" as="geometry">
            <mxRectangle width="150" height="30" as="alternateBounds" />
          </mxGeometry>
        </mxCell>
        <mxCell id="2C0zCBsF6jFKkmQKUa8t-38" value="Group" style="shape=table;startSize=30;container=1;collapsible=1;childLayout=tableLayout;fixedRows=1;rowLines=0;fontStyle=1;align=center;resizeLast=1;html=1;fillColor=#60a917;fontColor=#ffffff;strokeColor=#2D7600;rounded=1;swimlaneLine=0;shadow=0;" parent="YQK4Ysnu9C63STyvXHJZ-22" vertex="1">
          <mxGeometry x="830" y="280" width="180" height="120" as="geometry" />
        </mxCell>
        <mxCell id="2C0zCBsF6jFKkmQKUa8t-39" value="" style="shape=tableRow;horizontal=0;startSize=0;swimlaneHead=0;swimlaneBody=0;fillColor=none;collapsible=0;dropTarget=0;points=[[0,0.5],[1,0.5]];portConstraint=eastwest;top=0;left=0;right=0;bottom=1;shadow=0;swimlaneLine=0;" parent="2C0zCBsF6jFKkmQKUa8t-38" vertex="1">
          <mxGeometry y="30" width="180" height="30" as="geometry" />
        </mxCell>
        <mxCell id="2C0zCBsF6jFKkmQKUa8t-40" value="PK" style="shape=partialRectangle;connectable=0;fillColor=none;top=0;left=0;bottom=0;right=0;fontStyle=1;overflow=hidden;whiteSpace=wrap;html=1;shadow=0;swimlaneLine=0;" parent="2C0zCBsF6jFKkmQKUa8t-39" vertex="1">
          <mxGeometry width="30" height="30" as="geometry">
            <mxRectangle width="30" height="30" as="alternateBounds" />
          </mxGeometry>
        </mxCell>
        <mxCell id="2C0zCBsF6jFKkmQKUa8t-41" value="Id" style="shape=partialRectangle;connectable=0;fillColor=none;top=0;left=0;bottom=0;right=0;align=left;spacingLeft=6;fontStyle=5;overflow=hidden;whiteSpace=wrap;html=1;shadow=0;swimlaneLine=0;" parent="2C0zCBsF6jFKkmQKUa8t-39" vertex="1">
          <mxGeometry x="30" width="150" height="30" as="geometry">
            <mxRectangle width="150" height="30" as="alternateBounds" />
          </mxGeometry>
        </mxCell>
        <mxCell id="2C0zCBsF6jFKkmQKUa8t-42" value="" style="shape=tableRow;horizontal=0;startSize=0;swimlaneHead=0;swimlaneBody=0;fillColor=none;collapsible=0;dropTarget=0;points=[[0,0.5],[1,0.5]];portConstraint=eastwest;top=0;left=0;right=0;bottom=0;shadow=0;swimlaneLine=0;" parent="2C0zCBsF6jFKkmQKUa8t-38" vertex="1">
          <mxGeometry y="60" width="180" height="30" as="geometry" />
        </mxCell>
        <mxCell id="2C0zCBsF6jFKkmQKUa8t-43" value="" style="shape=partialRectangle;connectable=0;fillColor=none;top=0;left=0;bottom=0;right=0;editable=1;overflow=hidden;whiteSpace=wrap;html=1;shadow=0;swimlaneLine=0;" parent="2C0zCBsF6jFKkmQKUa8t-42" vertex="1">
          <mxGeometry width="30" height="30" as="geometry">
            <mxRectangle width="30" height="30" as="alternateBounds" />
          </mxGeometry>
        </mxCell>
        <mxCell id="2C0zCBsF6jFKkmQKUa8t-44" value="name" style="shape=partialRectangle;connectable=0;fillColor=none;top=0;left=0;bottom=0;right=0;align=left;spacingLeft=6;overflow=hidden;whiteSpace=wrap;html=1;shadow=0;swimlaneLine=0;" parent="2C0zCBsF6jFKkmQKUa8t-42" vertex="1">
          <mxGeometry x="30" width="150" height="30" as="geometry">
            <mxRectangle width="150" height="30" as="alternateBounds" />
          </mxGeometry>
        </mxCell>
        <mxCell id="2C0zCBsF6jFKkmQKUa8t-45" value="" style="shape=tableRow;horizontal=0;startSize=0;swimlaneHead=0;swimlaneBody=0;fillColor=none;collapsible=0;dropTarget=0;points=[[0,0.5],[1,0.5]];portConstraint=eastwest;top=0;left=0;right=0;bottom=0;shadow=0;swimlaneLine=0;" parent="2C0zCBsF6jFKkmQKUa8t-38" vertex="1">
          <mxGeometry y="90" width="180" height="30" as="geometry" />
        </mxCell>
        <mxCell id="2C0zCBsF6jFKkmQKUa8t-46" value="" style="shape=partialRectangle;connectable=0;fillColor=none;top=0;left=0;bottom=0;right=0;editable=1;overflow=hidden;whiteSpace=wrap;html=1;shadow=0;swimlaneLine=0;" parent="2C0zCBsF6jFKkmQKUa8t-45" vertex="1">
          <mxGeometry width="30" height="30" as="geometry">
            <mxRectangle width="30" height="30" as="alternateBounds" />
          </mxGeometry>
        </mxCell>
        <mxCell id="2C0zCBsF6jFKkmQKUa8t-47" value="description" style="shape=partialRectangle;connectable=0;fillColor=none;top=0;left=0;bottom=0;right=0;align=left;spacingLeft=6;overflow=hidden;whiteSpace=wrap;html=1;shadow=0;swimlaneLine=0;" parent="2C0zCBsF6jFKkmQKUa8t-45" vertex="1">
          <mxGeometry x="30" width="150" height="30" as="geometry">
            <mxRectangle width="150" height="30" as="alternateBounds" />
          </mxGeometry>
        </mxCell>
        <mxCell id="2C0zCBsF6jFKkmQKUa8t-51" value="Permition" style="shape=table;startSize=30;container=1;collapsible=1;childLayout=tableLayout;fixedRows=1;rowLines=0;fontStyle=1;align=center;resizeLast=1;html=1;rounded=1;fillColor=#008a00;fontColor=#ffffff;strokeColor=#005700;swimlaneLine=0;shadow=0;" parent="YQK4Ysnu9C63STyvXHJZ-22" vertex="1">
          <mxGeometry x="830" y="440" width="180" height="120" as="geometry" />
        </mxCell>
        <mxCell id="2C0zCBsF6jFKkmQKUa8t-52" value="" style="shape=tableRow;horizontal=0;startSize=0;swimlaneHead=0;swimlaneBody=0;fillColor=none;collapsible=0;dropTarget=0;points=[[0,0.5],[1,0.5]];portConstraint=eastwest;top=0;left=0;right=0;bottom=1;shadow=0;swimlaneLine=0;" parent="2C0zCBsF6jFKkmQKUa8t-51" vertex="1">
          <mxGeometry y="30" width="180" height="30" as="geometry" />
        </mxCell>
        <mxCell id="2C0zCBsF6jFKkmQKUa8t-53" value="PK" style="shape=partialRectangle;connectable=0;fillColor=none;top=0;left=0;bottom=0;right=0;fontStyle=1;overflow=hidden;whiteSpace=wrap;html=1;shadow=0;swimlaneLine=0;" parent="2C0zCBsF6jFKkmQKUa8t-52" vertex="1">
          <mxGeometry width="30" height="30" as="geometry">
            <mxRectangle width="30" height="30" as="alternateBounds" />
          </mxGeometry>
        </mxCell>
        <mxCell id="2C0zCBsF6jFKkmQKUa8t-54" value="Id" style="shape=partialRectangle;connectable=0;fillColor=none;top=0;left=0;bottom=0;right=0;align=left;spacingLeft=6;fontStyle=5;overflow=hidden;whiteSpace=wrap;html=1;shadow=0;swimlaneLine=0;" parent="2C0zCBsF6jFKkmQKUa8t-52" vertex="1">
          <mxGeometry x="30" width="150" height="30" as="geometry">
            <mxRectangle width="150" height="30" as="alternateBounds" />
          </mxGeometry>
        </mxCell>
        <mxCell id="2C0zCBsF6jFKkmQKUa8t-55" value="" style="shape=tableRow;horizontal=0;startSize=0;swimlaneHead=0;swimlaneBody=0;fillColor=none;collapsible=0;dropTarget=0;points=[[0,0.5],[1,0.5]];portConstraint=eastwest;top=0;left=0;right=0;bottom=0;shadow=0;swimlaneLine=0;" parent="2C0zCBsF6jFKkmQKUa8t-51" vertex="1">
          <mxGeometry y="60" width="180" height="30" as="geometry" />
        </mxCell>
        <mxCell id="2C0zCBsF6jFKkmQKUa8t-56" value="" style="shape=partialRectangle;connectable=0;fillColor=none;top=0;left=0;bottom=0;right=0;editable=1;overflow=hidden;whiteSpace=wrap;html=1;shadow=0;swimlaneLine=0;" parent="2C0zCBsF6jFKkmQKUa8t-55" vertex="1">
          <mxGeometry width="30" height="30" as="geometry">
            <mxRectangle width="30" height="30" as="alternateBounds" />
          </mxGeometry>
        </mxCell>
        <mxCell id="2C0zCBsF6jFKkmQKUa8t-57" value="name" style="shape=partialRectangle;connectable=0;fillColor=none;top=0;left=0;bottom=0;right=0;align=left;spacingLeft=6;overflow=hidden;whiteSpace=wrap;html=1;shadow=0;swimlaneLine=0;" parent="2C0zCBsF6jFKkmQKUa8t-55" vertex="1">
          <mxGeometry x="30" width="150" height="30" as="geometry">
            <mxRectangle width="150" height="30" as="alternateBounds" />
          </mxGeometry>
        </mxCell>
        <mxCell id="2C0zCBsF6jFKkmQKUa8t-58" value="" style="shape=tableRow;horizontal=0;startSize=0;swimlaneHead=0;swimlaneBody=0;fillColor=none;collapsible=0;dropTarget=0;points=[[0,0.5],[1,0.5]];portConstraint=eastwest;top=0;left=0;right=0;bottom=0;shadow=0;swimlaneLine=0;" parent="2C0zCBsF6jFKkmQKUa8t-51" vertex="1">
          <mxGeometry y="90" width="180" height="30" as="geometry" />
        </mxCell>
        <mxCell id="2C0zCBsF6jFKkmQKUa8t-59" value="" style="shape=partialRectangle;connectable=0;fillColor=none;top=0;left=0;bottom=0;right=0;editable=1;overflow=hidden;whiteSpace=wrap;html=1;shadow=0;swimlaneLine=0;" parent="2C0zCBsF6jFKkmQKUa8t-58" vertex="1">
          <mxGeometry width="30" height="30" as="geometry">
            <mxRectangle width="30" height="30" as="alternateBounds" />
          </mxGeometry>
        </mxCell>
        <mxCell id="2C0zCBsF6jFKkmQKUa8t-60" value="description" style="shape=partialRectangle;connectable=0;fillColor=none;top=0;left=0;bottom=0;right=0;align=left;spacingLeft=6;overflow=hidden;whiteSpace=wrap;html=1;shadow=0;swimlaneLine=0;" parent="2C0zCBsF6jFKkmQKUa8t-58" vertex="1">
          <mxGeometry x="30" width="150" height="30" as="geometry">
            <mxRectangle width="150" height="30" as="alternateBounds" />
          </mxGeometry>
        </mxCell>
        <mxCell id="2C0zCBsF6jFKkmQKUa8t-67" value="Groups Permitions" style="shape=table;startSize=30;container=1;collapsible=1;childLayout=tableLayout;fixedRows=1;rowLines=0;fontStyle=1;align=center;resizeLast=1;html=1;fillColor=#3D6B0F;fontColor=#ffffff;strokeColor=#2D7600;rounded=1;swimlaneLine=0;shadow=0;" parent="YQK4Ysnu9C63STyvXHJZ-22" vertex="1">
          <mxGeometry x="400" y="360" width="180" height="120" as="geometry" />
        </mxCell>
        <mxCell id="2C0zCBsF6jFKkmQKUa8t-68" value="" style="shape=tableRow;horizontal=0;startSize=0;swimlaneHead=0;swimlaneBody=0;fillColor=none;collapsible=0;dropTarget=0;points=[[0,0.5],[1,0.5]];portConstraint=eastwest;top=0;left=0;right=0;bottom=1;shadow=0;swimlaneLine=0;" parent="2C0zCBsF6jFKkmQKUa8t-67" vertex="1">
          <mxGeometry y="30" width="180" height="30" as="geometry" />
        </mxCell>
        <mxCell id="2C0zCBsF6jFKkmQKUa8t-69" value="PK" style="shape=partialRectangle;connectable=0;fillColor=none;top=0;left=0;bottom=0;right=0;fontStyle=1;overflow=hidden;whiteSpace=wrap;html=1;shadow=0;swimlaneLine=0;" parent="2C0zCBsF6jFKkmQKUa8t-68" vertex="1">
          <mxGeometry width="30" height="30" as="geometry">
            <mxRectangle width="30" height="30" as="alternateBounds" />
          </mxGeometry>
        </mxCell>
        <mxCell id="2C0zCBsF6jFKkmQKUa8t-70" value="Id" style="shape=partialRectangle;connectable=0;fillColor=none;top=0;left=0;bottom=0;right=0;align=left;spacingLeft=6;fontStyle=5;overflow=hidden;whiteSpace=wrap;html=1;shadow=0;swimlaneLine=0;" parent="2C0zCBsF6jFKkmQKUa8t-68" vertex="1">
          <mxGeometry x="30" width="150" height="30" as="geometry">
            <mxRectangle width="150" height="30" as="alternateBounds" />
          </mxGeometry>
        </mxCell>
        <mxCell id="2C0zCBsF6jFKkmQKUa8t-71" value="" style="shape=tableRow;horizontal=0;startSize=0;swimlaneHead=0;swimlaneBody=0;fillColor=none;collapsible=0;dropTarget=0;points=[[0,0.5],[1,0.5]];portConstraint=eastwest;top=0;left=0;right=0;bottom=0;shadow=0;swimlaneLine=0;" parent="2C0zCBsF6jFKkmQKUa8t-67" vertex="1">
          <mxGeometry y="60" width="180" height="30" as="geometry" />
        </mxCell>
        <mxCell id="2C0zCBsF6jFKkmQKUa8t-72" value="" style="shape=partialRectangle;connectable=0;fillColor=none;top=0;left=0;bottom=0;right=0;editable=1;overflow=hidden;whiteSpace=wrap;html=1;shadow=0;swimlaneLine=0;" parent="2C0zCBsF6jFKkmQKUa8t-71" vertex="1">
          <mxGeometry width="30" height="30" as="geometry">
            <mxRectangle width="30" height="30" as="alternateBounds" />
          </mxGeometry>
        </mxCell>
        <mxCell id="2C0zCBsF6jFKkmQKUa8t-73" value="Group" style="shape=partialRectangle;connectable=0;fillColor=none;top=0;left=0;bottom=0;right=0;align=left;spacingLeft=6;overflow=hidden;whiteSpace=wrap;html=1;shadow=0;swimlaneLine=0;" parent="2C0zCBsF6jFKkmQKUa8t-71" vertex="1">
          <mxGeometry x="30" width="150" height="30" as="geometry">
            <mxRectangle width="150" height="30" as="alternateBounds" />
          </mxGeometry>
        </mxCell>
        <mxCell id="2C0zCBsF6jFKkmQKUa8t-74" value="" style="shape=tableRow;horizontal=0;startSize=0;swimlaneHead=0;swimlaneBody=0;fillColor=none;collapsible=0;dropTarget=0;points=[[0,0.5],[1,0.5]];portConstraint=eastwest;top=0;left=0;right=0;bottom=0;shadow=0;swimlaneLine=0;" parent="2C0zCBsF6jFKkmQKUa8t-67" vertex="1">
          <mxGeometry y="90" width="180" height="30" as="geometry" />
        </mxCell>
        <mxCell id="2C0zCBsF6jFKkmQKUa8t-75" value="" style="shape=partialRectangle;connectable=0;fillColor=none;top=0;left=0;bottom=0;right=0;editable=1;overflow=hidden;whiteSpace=wrap;html=1;shadow=0;swimlaneLine=0;" parent="2C0zCBsF6jFKkmQKUa8t-74" vertex="1">
          <mxGeometry width="30" height="30" as="geometry">
            <mxRectangle width="30" height="30" as="alternateBounds" />
          </mxGeometry>
        </mxCell>
        <mxCell id="2C0zCBsF6jFKkmQKUa8t-76" value="Permition" style="shape=partialRectangle;connectable=0;fillColor=none;top=0;left=0;bottom=0;right=0;align=left;spacingLeft=6;overflow=hidden;whiteSpace=wrap;html=1;shadow=0;swimlaneLine=0;" parent="2C0zCBsF6jFKkmQKUa8t-74" vertex="1">
          <mxGeometry x="30" width="150" height="30" as="geometry">
            <mxRectangle width="150" height="30" as="alternateBounds" />
          </mxGeometry>
        </mxCell>
        <mxCell id="2C0zCBsF6jFKkmQKUa8t-83" value="Users Groups" style="shape=table;startSize=30;container=1;collapsible=1;childLayout=tableLayout;fixedRows=1;rowLines=0;fontStyle=1;align=center;resizeLast=1;html=1;fillColor=#26C96D;fontColor=#ffffff;strokeColor=#2D7600;rounded=1;swimlaneLine=0;shadow=0;" parent="YQK4Ysnu9C63STyvXHJZ-22" vertex="1">
          <mxGeometry x="400" y="160" width="180" height="120" as="geometry" />
        </mxCell>
        <mxCell id="2C0zCBsF6jFKkmQKUa8t-84" value="" style="shape=tableRow;horizontal=0;startSize=0;swimlaneHead=0;swimlaneBody=0;fillColor=none;collapsible=0;dropTarget=0;points=[[0,0.5],[1,0.5]];portConstraint=eastwest;top=0;left=0;right=0;bottom=1;shadow=0;swimlaneLine=0;" parent="2C0zCBsF6jFKkmQKUa8t-83" vertex="1">
          <mxGeometry y="30" width="180" height="30" as="geometry" />
        </mxCell>
        <mxCell id="2C0zCBsF6jFKkmQKUa8t-85" value="PK" style="shape=partialRectangle;connectable=0;fillColor=none;top=0;left=0;bottom=0;right=0;fontStyle=1;overflow=hidden;whiteSpace=wrap;html=1;shadow=0;swimlaneLine=0;" parent="2C0zCBsF6jFKkmQKUa8t-84" vertex="1">
          <mxGeometry width="30" height="30" as="geometry">
            <mxRectangle width="30" height="30" as="alternateBounds" />
          </mxGeometry>
        </mxCell>
        <mxCell id="2C0zCBsF6jFKkmQKUa8t-86" value="Id" style="shape=partialRectangle;connectable=0;fillColor=none;top=0;left=0;bottom=0;right=0;align=left;spacingLeft=6;fontStyle=5;overflow=hidden;whiteSpace=wrap;html=1;shadow=0;swimlaneLine=0;" parent="2C0zCBsF6jFKkmQKUa8t-84" vertex="1">
          <mxGeometry x="30" width="150" height="30" as="geometry">
            <mxRectangle width="150" height="30" as="alternateBounds" />
          </mxGeometry>
        </mxCell>
        <mxCell id="2C0zCBsF6jFKkmQKUa8t-87" value="" style="shape=tableRow;horizontal=0;startSize=0;swimlaneHead=0;swimlaneBody=0;fillColor=none;collapsible=0;dropTarget=0;points=[[0,0.5],[1,0.5]];portConstraint=eastwest;top=0;left=0;right=0;bottom=0;shadow=0;swimlaneLine=0;" parent="2C0zCBsF6jFKkmQKUa8t-83" vertex="1">
          <mxGeometry y="60" width="180" height="30" as="geometry" />
        </mxCell>
        <mxCell id="2C0zCBsF6jFKkmQKUa8t-88" value="" style="shape=partialRectangle;connectable=0;fillColor=none;top=0;left=0;bottom=0;right=0;editable=1;overflow=hidden;whiteSpace=wrap;html=1;shadow=0;swimlaneLine=0;" parent="2C0zCBsF6jFKkmQKUa8t-87" vertex="1">
          <mxGeometry width="30" height="30" as="geometry">
            <mxRectangle width="30" height="30" as="alternateBounds" />
          </mxGeometry>
        </mxCell>
        <mxCell id="2C0zCBsF6jFKkmQKUa8t-89" value="User" style="shape=partialRectangle;connectable=0;fillColor=none;top=0;left=0;bottom=0;right=0;align=left;spacingLeft=6;overflow=hidden;whiteSpace=wrap;html=1;shadow=0;swimlaneLine=0;" parent="2C0zCBsF6jFKkmQKUa8t-87" vertex="1">
          <mxGeometry x="30" width="150" height="30" as="geometry">
            <mxRectangle width="150" height="30" as="alternateBounds" />
          </mxGeometry>
        </mxCell>
        <mxCell id="2C0zCBsF6jFKkmQKUa8t-90" value="" style="shape=tableRow;horizontal=0;startSize=0;swimlaneHead=0;swimlaneBody=0;fillColor=none;collapsible=0;dropTarget=0;points=[[0,0.5],[1,0.5]];portConstraint=eastwest;top=0;left=0;right=0;bottom=0;shadow=0;swimlaneLine=0;" parent="2C0zCBsF6jFKkmQKUa8t-83" vertex="1">
          <mxGeometry y="90" width="180" height="30" as="geometry" />
        </mxCell>
        <mxCell id="2C0zCBsF6jFKkmQKUa8t-91" value="" style="shape=partialRectangle;connectable=0;fillColor=none;top=0;left=0;bottom=0;right=0;editable=1;overflow=hidden;whiteSpace=wrap;html=1;shadow=0;swimlaneLine=0;" parent="2C0zCBsF6jFKkmQKUa8t-90" vertex="1">
          <mxGeometry width="30" height="30" as="geometry">
            <mxRectangle width="30" height="30" as="alternateBounds" />
          </mxGeometry>
        </mxCell>
        <mxCell id="2C0zCBsF6jFKkmQKUa8t-92" value="Group" style="shape=partialRectangle;connectable=0;fillColor=none;top=0;left=0;bottom=0;right=0;align=left;spacingLeft=6;overflow=hidden;whiteSpace=wrap;html=1;shadow=0;swimlaneLine=0;" parent="2C0zCBsF6jFKkmQKUa8t-90" vertex="1">
          <mxGeometry x="30" width="150" height="30" as="geometry">
            <mxRectangle width="150" height="30" as="alternateBounds" />
          </mxGeometry>
        </mxCell>
        <mxCell id="2C0zCBsF6jFKkmQKUa8t-96" style="edgeStyle=orthogonalEdgeStyle;rounded=0;orthogonalLoop=1;jettySize=auto;html=1;exitX=1;exitY=0.5;exitDx=0;exitDy=0;entryX=0;entryY=0.5;entryDx=0;entryDy=0;shadow=0;swimlaneLine=0;" parent="YQK4Ysnu9C63STyvXHJZ-22" source="2C0zCBsF6jFKkmQKUa8t-71" target="2C0zCBsF6jFKkmQKUa8t-39" edge="1">
          <mxGeometry relative="1" as="geometry">
            <Array as="points">
              <mxPoint x="690" y="435" />
              <mxPoint x="690" y="325" />
            </Array>
          </mxGeometry>
        </mxCell>
        <mxCell id="2C0zCBsF6jFKkmQKUa8t-97" style="edgeStyle=orthogonalEdgeStyle;rounded=0;orthogonalLoop=1;jettySize=auto;html=1;exitX=1;exitY=0.5;exitDx=0;exitDy=0;entryX=0;entryY=0.5;entryDx=0;entryDy=0;shadow=0;swimlaneLine=0;" parent="YQK4Ysnu9C63STyvXHJZ-22" source="2C0zCBsF6jFKkmQKUa8t-74" target="2C0zCBsF6jFKkmQKUa8t-52" edge="1">
          <mxGeometry relative="1" as="geometry">
            <Array as="points">
              <mxPoint x="690" y="465" />
              <mxPoint x="690" y="485" />
            </Array>
          </mxGeometry>
        </mxCell>
        <mxCell id="2C0zCBsF6jFKkmQKUa8t-99" style="edgeStyle=orthogonalEdgeStyle;rounded=0;orthogonalLoop=1;jettySize=auto;html=1;exitX=1;exitY=0.5;exitDx=0;exitDy=0;entryX=0;entryY=0.5;entryDx=0;entryDy=0;shadow=0;swimlaneLine=0;" parent="YQK4Ysnu9C63STyvXHJZ-22" source="2C0zCBsF6jFKkmQKUa8t-90" target="2C0zCBsF6jFKkmQKUa8t-39" edge="1">
          <mxGeometry relative="1" as="geometry">
            <Array as="points">
              <mxPoint x="640" y="265" />
              <mxPoint x="640" y="325" />
            </Array>
          </mxGeometry>
        </mxCell>
        <mxCell id="2C0zCBsF6jFKkmQKUa8t-100" style="edgeStyle=orthogonalEdgeStyle;rounded=0;orthogonalLoop=1;jettySize=auto;html=1;exitX=0;exitY=0.5;exitDx=0;exitDy=0;entryX=1;entryY=0.5;entryDx=0;entryDy=0;shadow=0;swimlaneLine=0;" parent="YQK4Ysnu9C63STyvXHJZ-22" source="2C0zCBsF6jFKkmQKUa8t-87" target="2C0zCBsF6jFKkmQKUa8t-3" edge="1">
          <mxGeometry relative="1" as="geometry" />
        </mxCell>
        <mxCell id="YQK4Ysnu9C63STyvXHJZ-8" value="Users Permitions" style="shape=table;startSize=30;container=1;collapsible=1;childLayout=tableLayout;fixedRows=1;rowLines=0;fontStyle=1;align=center;resizeLast=1;html=1;fillColor=#26C96D;fontColor=#ffffff;strokeColor=#2D7600;rounded=1;swimlaneLine=0;shadow=0;" parent="YQK4Ysnu9C63STyvXHJZ-22" vertex="1">
          <mxGeometry x="400" y="560" width="180" height="120" as="geometry" />
        </mxCell>
        <mxCell id="YQK4Ysnu9C63STyvXHJZ-9" value="" style="shape=tableRow;horizontal=0;startSize=0;swimlaneHead=0;swimlaneBody=0;fillColor=none;collapsible=0;dropTarget=0;points=[[0,0.5],[1,0.5]];portConstraint=eastwest;top=0;left=0;right=0;bottom=1;shadow=0;swimlaneLine=0;" parent="YQK4Ysnu9C63STyvXHJZ-8" vertex="1">
          <mxGeometry y="30" width="180" height="30" as="geometry" />
        </mxCell>
        <mxCell id="YQK4Ysnu9C63STyvXHJZ-10" value="PK" style="shape=partialRectangle;connectable=0;fillColor=none;top=0;left=0;bottom=0;right=0;fontStyle=1;overflow=hidden;whiteSpace=wrap;html=1;shadow=0;swimlaneLine=0;" parent="YQK4Ysnu9C63STyvXHJZ-9" vertex="1">
          <mxGeometry width="30" height="30" as="geometry">
            <mxRectangle width="30" height="30" as="alternateBounds" />
          </mxGeometry>
        </mxCell>
        <mxCell id="YQK4Ysnu9C63STyvXHJZ-11" value="Id" style="shape=partialRectangle;connectable=0;fillColor=none;top=0;left=0;bottom=0;right=0;align=left;spacingLeft=6;fontStyle=5;overflow=hidden;whiteSpace=wrap;html=1;shadow=0;swimlaneLine=0;" parent="YQK4Ysnu9C63STyvXHJZ-9" vertex="1">
          <mxGeometry x="30" width="150" height="30" as="geometry">
            <mxRectangle width="150" height="30" as="alternateBounds" />
          </mxGeometry>
        </mxCell>
        <mxCell id="YQK4Ysnu9C63STyvXHJZ-12" value="" style="shape=tableRow;horizontal=0;startSize=0;swimlaneHead=0;swimlaneBody=0;fillColor=none;collapsible=0;dropTarget=0;points=[[0,0.5],[1,0.5]];portConstraint=eastwest;top=0;left=0;right=0;bottom=0;shadow=0;swimlaneLine=0;" parent="YQK4Ysnu9C63STyvXHJZ-8" vertex="1">
          <mxGeometry y="60" width="180" height="30" as="geometry" />
        </mxCell>
        <mxCell id="YQK4Ysnu9C63STyvXHJZ-13" value="" style="shape=partialRectangle;connectable=0;fillColor=none;top=0;left=0;bottom=0;right=0;editable=1;overflow=hidden;whiteSpace=wrap;html=1;shadow=0;swimlaneLine=0;" parent="YQK4Ysnu9C63STyvXHJZ-12" vertex="1">
          <mxGeometry width="30" height="30" as="geometry">
            <mxRectangle width="30" height="30" as="alternateBounds" />
          </mxGeometry>
        </mxCell>
        <mxCell id="YQK4Ysnu9C63STyvXHJZ-14" value="User" style="shape=partialRectangle;connectable=0;fillColor=none;top=0;left=0;bottom=0;right=0;align=left;spacingLeft=6;overflow=hidden;whiteSpace=wrap;html=1;shadow=0;swimlaneLine=0;" parent="YQK4Ysnu9C63STyvXHJZ-12" vertex="1">
          <mxGeometry x="30" width="150" height="30" as="geometry">
            <mxRectangle width="150" height="30" as="alternateBounds" />
          </mxGeometry>
        </mxCell>
        <mxCell id="YQK4Ysnu9C63STyvXHJZ-15" value="" style="shape=tableRow;horizontal=0;startSize=0;swimlaneHead=0;swimlaneBody=0;fillColor=none;collapsible=0;dropTarget=0;points=[[0,0.5],[1,0.5]];portConstraint=eastwest;top=0;left=0;right=0;bottom=0;shadow=0;swimlaneLine=0;" parent="YQK4Ysnu9C63STyvXHJZ-8" vertex="1">
          <mxGeometry y="90" width="180" height="30" as="geometry" />
        </mxCell>
        <mxCell id="YQK4Ysnu9C63STyvXHJZ-16" value="" style="shape=partialRectangle;connectable=0;fillColor=none;top=0;left=0;bottom=0;right=0;editable=1;overflow=hidden;whiteSpace=wrap;html=1;shadow=0;swimlaneLine=0;" parent="YQK4Ysnu9C63STyvXHJZ-15" vertex="1">
          <mxGeometry width="30" height="30" as="geometry">
            <mxRectangle width="30" height="30" as="alternateBounds" />
          </mxGeometry>
        </mxCell>
        <mxCell id="YQK4Ysnu9C63STyvXHJZ-17" value="Permition" style="shape=partialRectangle;connectable=0;fillColor=none;top=0;left=0;bottom=0;right=0;align=left;spacingLeft=6;overflow=hidden;whiteSpace=wrap;html=1;shadow=0;swimlaneLine=0;" parent="YQK4Ysnu9C63STyvXHJZ-15" vertex="1">
          <mxGeometry x="30" width="150" height="30" as="geometry">
            <mxRectangle width="150" height="30" as="alternateBounds" />
          </mxGeometry>
        </mxCell>
        <mxCell id="YQK4Ysnu9C63STyvXHJZ-19" style="edgeStyle=orthogonalEdgeStyle;rounded=0;orthogonalLoop=1;jettySize=auto;html=1;exitX=1;exitY=0.5;exitDx=0;exitDy=0;entryX=0;entryY=0.5;entryDx=0;entryDy=0;" parent="YQK4Ysnu9C63STyvXHJZ-22" source="YQK4Ysnu9C63STyvXHJZ-15" target="2C0zCBsF6jFKkmQKUa8t-52" edge="1">
          <mxGeometry relative="1" as="geometry">
            <Array as="points">
              <mxPoint x="680" y="665" />
              <mxPoint x="680" y="545" />
              <mxPoint x="760" y="545" />
              <mxPoint x="760" y="485" />
            </Array>
          </mxGeometry>
        </mxCell>
        <mxCell id="YQK4Ysnu9C63STyvXHJZ-20" style="edgeStyle=orthogonalEdgeStyle;rounded=0;orthogonalLoop=1;jettySize=auto;html=1;exitX=0;exitY=0.5;exitDx=0;exitDy=0;entryX=1;entryY=0.5;entryDx=0;entryDy=0;" parent="YQK4Ysnu9C63STyvXHJZ-22" source="YQK4Ysnu9C63STyvXHJZ-12" target="2C0zCBsF6jFKkmQKUa8t-3" edge="1">
          <mxGeometry relative="1" as="geometry" />
        </mxCell>
        <mxCell id="YQK4Ysnu9C63STyvXHJZ-23" value="&lt;h1&gt;Users &amp;amp; Permitions&lt;/h1&gt;" style="text;html=1;strokeColor=none;fillColor=none;spacing=5;spacingTop=-20;whiteSpace=wrap;overflow=hidden;rounded=0;" parent="YQK4Ysnu9C63STyvXHJZ-22" vertex="1">
          <mxGeometry x="425" y="30" width="235" height="40" as="geometry" />
        </mxCell>
        <mxCell id="YQK4Ysnu9C63STyvXHJZ-76" value="" style="group;" parent="1" vertex="1" connectable="0">
          <mxGeometry x="-562" y="43" width="800" height="640" as="geometry" />
        </mxCell>
        <mxCell id="YQK4Ysnu9C63STyvXHJZ-75" value="" style="rounded=1;whiteSpace=wrap;html=1;" parent="YQK4Ysnu9C63STyvXHJZ-76" vertex="1">
          <mxGeometry width="800" height="640" as="geometry" />
        </mxCell>
        <mxCell id="YQK4Ysnu9C63STyvXHJZ-24" value="Subscribtion" style="shape=table;startSize=30;container=1;collapsible=1;childLayout=tableLayout;fixedRows=1;rowLines=0;fontStyle=1;align=center;resizeLast=1;html=1;rounded=1;swimlaneLine=0;fillColor=#d80073;fontColor=#ffffff;strokeColor=#A50040;" parent="YQK4Ysnu9C63STyvXHJZ-76" vertex="1">
          <mxGeometry x="165" y="120" width="180" height="150" as="geometry" />
        </mxCell>
        <mxCell id="YQK4Ysnu9C63STyvXHJZ-25" value="" style="shape=tableRow;horizontal=0;startSize=0;swimlaneHead=0;swimlaneBody=0;fillColor=none;collapsible=0;dropTarget=0;points=[[0,0.5],[1,0.5]];portConstraint=eastwest;top=0;left=0;right=0;bottom=1;" parent="YQK4Ysnu9C63STyvXHJZ-24" vertex="1">
          <mxGeometry y="30" width="180" height="30" as="geometry" />
        </mxCell>
        <mxCell id="YQK4Ysnu9C63STyvXHJZ-26" value="PK" style="shape=partialRectangle;connectable=0;fillColor=none;top=0;left=0;bottom=0;right=0;fontStyle=1;overflow=hidden;whiteSpace=wrap;html=1;" parent="YQK4Ysnu9C63STyvXHJZ-25" vertex="1">
          <mxGeometry width="30" height="30" as="geometry">
            <mxRectangle width="30" height="30" as="alternateBounds" />
          </mxGeometry>
        </mxCell>
        <mxCell id="YQK4Ysnu9C63STyvXHJZ-27" value="Id" style="shape=partialRectangle;connectable=0;fillColor=none;top=0;left=0;bottom=0;right=0;align=left;spacingLeft=6;fontStyle=5;overflow=hidden;whiteSpace=wrap;html=1;" parent="YQK4Ysnu9C63STyvXHJZ-25" vertex="1">
          <mxGeometry x="30" width="150" height="30" as="geometry">
            <mxRectangle width="150" height="30" as="alternateBounds" />
          </mxGeometry>
        </mxCell>
        <mxCell id="YQK4Ysnu9C63STyvXHJZ-28" value="" style="shape=tableRow;horizontal=0;startSize=0;swimlaneHead=0;swimlaneBody=0;fillColor=none;collapsible=0;dropTarget=0;points=[[0,0.5],[1,0.5]];portConstraint=eastwest;top=0;left=0;right=0;bottom=0;" parent="YQK4Ysnu9C63STyvXHJZ-24" vertex="1">
          <mxGeometry y="60" width="180" height="30" as="geometry" />
        </mxCell>
        <mxCell id="YQK4Ysnu9C63STyvXHJZ-29" value="" style="shape=partialRectangle;connectable=0;fillColor=none;top=0;left=0;bottom=0;right=0;editable=1;overflow=hidden;whiteSpace=wrap;html=1;" parent="YQK4Ysnu9C63STyvXHJZ-28" vertex="1">
          <mxGeometry width="30" height="30" as="geometry">
            <mxRectangle width="30" height="30" as="alternateBounds" />
          </mxGeometry>
        </mxCell>
        <mxCell id="YQK4Ysnu9C63STyvXHJZ-30" value="name" style="shape=partialRectangle;connectable=0;fillColor=none;top=0;left=0;bottom=0;right=0;align=left;spacingLeft=6;overflow=hidden;whiteSpace=wrap;html=1;" parent="YQK4Ysnu9C63STyvXHJZ-28" vertex="1">
          <mxGeometry x="30" width="150" height="30" as="geometry">
            <mxRectangle width="150" height="30" as="alternateBounds" />
          </mxGeometry>
        </mxCell>
        <mxCell id="YQK4Ysnu9C63STyvXHJZ-31" value="" style="shape=tableRow;horizontal=0;startSize=0;swimlaneHead=0;swimlaneBody=0;fillColor=none;collapsible=0;dropTarget=0;points=[[0,0.5],[1,0.5]];portConstraint=eastwest;top=0;left=0;right=0;bottom=0;" parent="YQK4Ysnu9C63STyvXHJZ-24" vertex="1">
          <mxGeometry y="90" width="180" height="30" as="geometry" />
        </mxCell>
        <mxCell id="YQK4Ysnu9C63STyvXHJZ-32" value="" style="shape=partialRectangle;connectable=0;fillColor=none;top=0;left=0;bottom=0;right=0;editable=1;overflow=hidden;whiteSpace=wrap;html=1;" parent="YQK4Ysnu9C63STyvXHJZ-31" vertex="1">
          <mxGeometry width="30" height="30" as="geometry">
            <mxRectangle width="30" height="30" as="alternateBounds" />
          </mxGeometry>
        </mxCell>
        <mxCell id="YQK4Ysnu9C63STyvXHJZ-33" value="describtion" style="shape=partialRectangle;connectable=0;fillColor=none;top=0;left=0;bottom=0;right=0;align=left;spacingLeft=6;overflow=hidden;whiteSpace=wrap;html=1;" parent="YQK4Ysnu9C63STyvXHJZ-31" vertex="1">
          <mxGeometry x="30" width="150" height="30" as="geometry">
            <mxRectangle width="150" height="30" as="alternateBounds" />
          </mxGeometry>
        </mxCell>
        <mxCell id="5e8xEtgHr6Df8SR7HKBj-21" style="shape=tableRow;horizontal=0;startSize=0;swimlaneHead=0;swimlaneBody=0;fillColor=none;collapsible=0;dropTarget=0;points=[[0,0.5],[1,0.5]];portConstraint=eastwest;top=0;left=0;right=0;bottom=0;" parent="YQK4Ysnu9C63STyvXHJZ-24" vertex="1">
          <mxGeometry y="120" width="180" height="30" as="geometry" />
        </mxCell>
        <mxCell id="5e8xEtgHr6Df8SR7HKBj-22" style="shape=partialRectangle;connectable=0;fillColor=none;top=0;left=0;bottom=0;right=0;editable=1;overflow=hidden;whiteSpace=wrap;html=1;" parent="5e8xEtgHr6Df8SR7HKBj-21" vertex="1">
          <mxGeometry width="30" height="30" as="geometry">
            <mxRectangle width="30" height="30" as="alternateBounds" />
          </mxGeometry>
        </mxCell>
        <mxCell id="5e8xEtgHr6Df8SR7HKBj-23" value="Gym" style="shape=partialRectangle;connectable=0;fillColor=none;top=0;left=0;bottom=0;right=0;align=left;spacingLeft=6;overflow=hidden;whiteSpace=wrap;html=1;" parent="5e8xEtgHr6Df8SR7HKBj-21" vertex="1">
          <mxGeometry x="30" width="150" height="30" as="geometry">
            <mxRectangle width="150" height="30" as="alternateBounds" />
          </mxGeometry>
        </mxCell>
        <mxCell id="YQK4Ysnu9C63STyvXHJZ-77" style="edgeStyle=orthogonalEdgeStyle;rounded=0;orthogonalLoop=1;jettySize=auto;html=1;exitX=1;exitY=0.5;exitDx=0;exitDy=0;" parent="YQK4Ysnu9C63STyvXHJZ-24" source="YQK4Ysnu9C63STyvXHJZ-25" target="YQK4Ysnu9C63STyvXHJZ-25" edge="1">
          <mxGeometry relative="1" as="geometry" />
        </mxCell>
        <mxCell id="YQK4Ysnu9C63STyvXHJZ-40" value="Subscribtion Period" style="shape=table;startSize=30;container=1;collapsible=1;childLayout=tableLayout;fixedRows=1;rowLines=0;fontStyle=1;align=center;resizeLast=1;html=1;rounded=1;swimlaneLine=0;fillColor=#d80073;fontColor=#ffffff;strokeColor=#A50040;" parent="YQK4Ysnu9C63STyvXHJZ-76" vertex="1">
          <mxGeometry x="165" y="315" width="180" height="150" as="geometry" />
        </mxCell>
        <mxCell id="YQK4Ysnu9C63STyvXHJZ-41" value="" style="shape=tableRow;horizontal=0;startSize=0;swimlaneHead=0;swimlaneBody=0;fillColor=none;collapsible=0;dropTarget=0;points=[[0,0.5],[1,0.5]];portConstraint=eastwest;top=0;left=0;right=0;bottom=1;" parent="YQK4Ysnu9C63STyvXHJZ-40" vertex="1">
          <mxGeometry y="30" width="180" height="30" as="geometry" />
        </mxCell>
        <mxCell id="YQK4Ysnu9C63STyvXHJZ-42" value="PK" style="shape=partialRectangle;connectable=0;fillColor=none;top=0;left=0;bottom=0;right=0;fontStyle=1;overflow=hidden;whiteSpace=wrap;html=1;" parent="YQK4Ysnu9C63STyvXHJZ-41" vertex="1">
          <mxGeometry width="30" height="30" as="geometry">
            <mxRectangle width="30" height="30" as="alternateBounds" />
          </mxGeometry>
        </mxCell>
        <mxCell id="YQK4Ysnu9C63STyvXHJZ-43" value="Id" style="shape=partialRectangle;connectable=0;fillColor=none;top=0;left=0;bottom=0;right=0;align=left;spacingLeft=6;fontStyle=5;overflow=hidden;whiteSpace=wrap;html=1;" parent="YQK4Ysnu9C63STyvXHJZ-41" vertex="1">
          <mxGeometry x="30" width="150" height="30" as="geometry">
            <mxRectangle width="150" height="30" as="alternateBounds" />
          </mxGeometry>
        </mxCell>
        <mxCell id="YQK4Ysnu9C63STyvXHJZ-44" value="" style="shape=tableRow;horizontal=0;startSize=0;swimlaneHead=0;swimlaneBody=0;fillColor=none;collapsible=0;dropTarget=0;points=[[0,0.5],[1,0.5]];portConstraint=eastwest;top=0;left=0;right=0;bottom=0;" parent="YQK4Ysnu9C63STyvXHJZ-40" vertex="1">
          <mxGeometry y="60" width="180" height="30" as="geometry" />
        </mxCell>
        <mxCell id="YQK4Ysnu9C63STyvXHJZ-45" value="" style="shape=partialRectangle;connectable=0;fillColor=none;top=0;left=0;bottom=0;right=0;editable=1;overflow=hidden;whiteSpace=wrap;html=1;" parent="YQK4Ysnu9C63STyvXHJZ-44" vertex="1">
          <mxGeometry width="30" height="30" as="geometry">
            <mxRectangle width="30" height="30" as="alternateBounds" />
          </mxGeometry>
        </mxCell>
        <mxCell id="YQK4Ysnu9C63STyvXHJZ-46" value="Subscribtion" style="shape=partialRectangle;connectable=0;fillColor=none;top=0;left=0;bottom=0;right=0;align=left;spacingLeft=6;overflow=hidden;whiteSpace=wrap;html=1;" parent="YQK4Ysnu9C63STyvXHJZ-44" vertex="1">
          <mxGeometry x="30" width="150" height="30" as="geometry">
            <mxRectangle width="150" height="30" as="alternateBounds" />
          </mxGeometry>
        </mxCell>
        <mxCell id="YQK4Ysnu9C63STyvXHJZ-47" value="" style="shape=tableRow;horizontal=0;startSize=0;swimlaneHead=0;swimlaneBody=0;fillColor=none;collapsible=0;dropTarget=0;points=[[0,0.5],[1,0.5]];portConstraint=eastwest;top=0;left=0;right=0;bottom=0;" parent="YQK4Ysnu9C63STyvXHJZ-40" vertex="1">
          <mxGeometry y="90" width="180" height="30" as="geometry" />
        </mxCell>
        <mxCell id="YQK4Ysnu9C63STyvXHJZ-48" value="" style="shape=partialRectangle;connectable=0;fillColor=none;top=0;left=0;bottom=0;right=0;editable=1;overflow=hidden;whiteSpace=wrap;html=1;" parent="YQK4Ysnu9C63STyvXHJZ-47" vertex="1">
          <mxGeometry width="30" height="30" as="geometry">
            <mxRectangle width="30" height="30" as="alternateBounds" />
          </mxGeometry>
        </mxCell>
        <mxCell id="YQK4Ysnu9C63STyvXHJZ-49" value="period" style="shape=partialRectangle;connectable=0;fillColor=none;top=0;left=0;bottom=0;right=0;align=left;spacingLeft=6;overflow=hidden;whiteSpace=wrap;html=1;" parent="YQK4Ysnu9C63STyvXHJZ-47" vertex="1">
          <mxGeometry x="30" width="150" height="30" as="geometry">
            <mxRectangle width="150" height="30" as="alternateBounds" />
          </mxGeometry>
        </mxCell>
        <mxCell id="YQK4Ysnu9C63STyvXHJZ-56" style="shape=tableRow;horizontal=0;startSize=0;swimlaneHead=0;swimlaneBody=0;fillColor=none;collapsible=0;dropTarget=0;points=[[0,0.5],[1,0.5]];portConstraint=eastwest;top=0;left=0;right=0;bottom=0;" parent="YQK4Ysnu9C63STyvXHJZ-40" vertex="1">
          <mxGeometry y="120" width="180" height="30" as="geometry" />
        </mxCell>
        <mxCell id="YQK4Ysnu9C63STyvXHJZ-57" style="shape=partialRectangle;connectable=0;fillColor=none;top=0;left=0;bottom=0;right=0;editable=1;overflow=hidden;whiteSpace=wrap;html=1;" parent="YQK4Ysnu9C63STyvXHJZ-56" vertex="1">
          <mxGeometry width="30" height="30" as="geometry">
            <mxRectangle width="30" height="30" as="alternateBounds" />
          </mxGeometry>
        </mxCell>
        <mxCell id="YQK4Ysnu9C63STyvXHJZ-58" value="price" style="shape=partialRectangle;connectable=0;fillColor=none;top=0;left=0;bottom=0;right=0;align=left;spacingLeft=6;overflow=hidden;whiteSpace=wrap;html=1;" parent="YQK4Ysnu9C63STyvXHJZ-56" vertex="1">
          <mxGeometry x="30" width="150" height="30" as="geometry">
            <mxRectangle width="150" height="30" as="alternateBounds" />
          </mxGeometry>
        </mxCell>
        <mxCell id="YQK4Ysnu9C63STyvXHJZ-59" value="Users Subscribtions" style="shape=table;startSize=30;container=1;collapsible=1;childLayout=tableLayout;fixedRows=1;rowLines=0;fontStyle=1;align=center;resizeLast=1;html=1;rounded=1;swimlaneLine=0;fillColor=#D88527;fontColor=#ffffff;strokeColor=#A50040;" parent="YQK4Ysnu9C63STyvXHJZ-76" vertex="1">
          <mxGeometry x="455" y="230" width="180" height="180" as="geometry" />
        </mxCell>
        <mxCell id="YQK4Ysnu9C63STyvXHJZ-60" value="" style="shape=tableRow;horizontal=0;startSize=0;swimlaneHead=0;swimlaneBody=0;fillColor=none;collapsible=0;dropTarget=0;points=[[0,0.5],[1,0.5]];portConstraint=eastwest;top=0;left=0;right=0;bottom=1;" parent="YQK4Ysnu9C63STyvXHJZ-59" vertex="1">
          <mxGeometry y="30" width="180" height="30" as="geometry" />
        </mxCell>
        <mxCell id="YQK4Ysnu9C63STyvXHJZ-61" value="PK" style="shape=partialRectangle;connectable=0;fillColor=none;top=0;left=0;bottom=0;right=0;fontStyle=1;overflow=hidden;whiteSpace=wrap;html=1;" parent="YQK4Ysnu9C63STyvXHJZ-60" vertex="1">
          <mxGeometry width="30" height="30" as="geometry">
            <mxRectangle width="30" height="30" as="alternateBounds" />
          </mxGeometry>
        </mxCell>
        <mxCell id="YQK4Ysnu9C63STyvXHJZ-62" value="Id" style="shape=partialRectangle;connectable=0;fillColor=none;top=0;left=0;bottom=0;right=0;align=left;spacingLeft=6;fontStyle=5;overflow=hidden;whiteSpace=wrap;html=1;" parent="YQK4Ysnu9C63STyvXHJZ-60" vertex="1">
          <mxGeometry x="30" width="150" height="30" as="geometry">
            <mxRectangle width="150" height="30" as="alternateBounds" />
          </mxGeometry>
        </mxCell>
        <mxCell id="YQK4Ysnu9C63STyvXHJZ-63" value="" style="shape=tableRow;horizontal=0;startSize=0;swimlaneHead=0;swimlaneBody=0;fillColor=none;collapsible=0;dropTarget=0;points=[[0,0.5],[1,0.5]];portConstraint=eastwest;top=0;left=0;right=0;bottom=0;" parent="YQK4Ysnu9C63STyvXHJZ-59" vertex="1">
          <mxGeometry y="60" width="180" height="30" as="geometry" />
        </mxCell>
        <mxCell id="YQK4Ysnu9C63STyvXHJZ-64" value="" style="shape=partialRectangle;connectable=0;fillColor=none;top=0;left=0;bottom=0;right=0;editable=1;overflow=hidden;whiteSpace=wrap;html=1;" parent="YQK4Ysnu9C63STyvXHJZ-63" vertex="1">
          <mxGeometry width="30" height="30" as="geometry">
            <mxRectangle width="30" height="30" as="alternateBounds" />
          </mxGeometry>
        </mxCell>
        <mxCell id="YQK4Ysnu9C63STyvXHJZ-65" value="Subscribtion" style="shape=partialRectangle;connectable=0;fillColor=none;top=0;left=0;bottom=0;right=0;align=left;spacingLeft=6;overflow=hidden;whiteSpace=wrap;html=1;" parent="YQK4Ysnu9C63STyvXHJZ-63" vertex="1">
          <mxGeometry x="30" width="150" height="30" as="geometry">
            <mxRectangle width="150" height="30" as="alternateBounds" />
          </mxGeometry>
        </mxCell>
        <mxCell id="YQK4Ysnu9C63STyvXHJZ-66" value="" style="shape=tableRow;horizontal=0;startSize=0;swimlaneHead=0;swimlaneBody=0;fillColor=none;collapsible=0;dropTarget=0;points=[[0,0.5],[1,0.5]];portConstraint=eastwest;top=0;left=0;right=0;bottom=0;" parent="YQK4Ysnu9C63STyvXHJZ-59" vertex="1">
          <mxGeometry y="90" width="180" height="30" as="geometry" />
        </mxCell>
        <mxCell id="YQK4Ysnu9C63STyvXHJZ-67" value="" style="shape=partialRectangle;connectable=0;fillColor=none;top=0;left=0;bottom=0;right=0;editable=1;overflow=hidden;whiteSpace=wrap;html=1;" parent="YQK4Ysnu9C63STyvXHJZ-66" vertex="1">
          <mxGeometry width="30" height="30" as="geometry">
            <mxRectangle width="30" height="30" as="alternateBounds" />
          </mxGeometry>
        </mxCell>
        <mxCell id="YQK4Ysnu9C63STyvXHJZ-68" value="Subscriber" style="shape=partialRectangle;connectable=0;fillColor=none;top=0;left=0;bottom=0;right=0;align=left;spacingLeft=6;overflow=hidden;whiteSpace=wrap;html=1;" parent="YQK4Ysnu9C63STyvXHJZ-66" vertex="1">
          <mxGeometry x="30" width="150" height="30" as="geometry">
            <mxRectangle width="150" height="30" as="alternateBounds" />
          </mxGeometry>
        </mxCell>
        <mxCell id="YQK4Ysnu9C63STyvXHJZ-69" style="shape=tableRow;horizontal=0;startSize=0;swimlaneHead=0;swimlaneBody=0;fillColor=none;collapsible=0;dropTarget=0;points=[[0,0.5],[1,0.5]];portConstraint=eastwest;top=0;left=0;right=0;bottom=0;" parent="YQK4Ysnu9C63STyvXHJZ-59" vertex="1">
          <mxGeometry y="120" width="180" height="30" as="geometry" />
        </mxCell>
        <mxCell id="YQK4Ysnu9C63STyvXHJZ-70" style="shape=partialRectangle;connectable=0;fillColor=none;top=0;left=0;bottom=0;right=0;editable=1;overflow=hidden;whiteSpace=wrap;html=1;" parent="YQK4Ysnu9C63STyvXHJZ-69" vertex="1">
          <mxGeometry width="30" height="30" as="geometry">
            <mxRectangle width="30" height="30" as="alternateBounds" />
          </mxGeometry>
        </mxCell>
        <mxCell id="YQK4Ysnu9C63STyvXHJZ-71" value="subscribed at (date)" style="shape=partialRectangle;connectable=0;fillColor=none;top=0;left=0;bottom=0;right=0;align=left;spacingLeft=6;overflow=hidden;whiteSpace=wrap;html=1;" parent="YQK4Ysnu9C63STyvXHJZ-69" vertex="1">
          <mxGeometry x="30" width="150" height="30" as="geometry">
            <mxRectangle width="150" height="30" as="alternateBounds" />
          </mxGeometry>
        </mxCell>
        <mxCell id="YQK4Ysnu9C63STyvXHJZ-72" style="shape=tableRow;horizontal=0;startSize=0;swimlaneHead=0;swimlaneBody=0;fillColor=none;collapsible=0;dropTarget=0;points=[[0,0.5],[1,0.5]];portConstraint=eastwest;top=0;left=0;right=0;bottom=0;" parent="YQK4Ysnu9C63STyvXHJZ-59" vertex="1">
          <mxGeometry y="150" width="180" height="30" as="geometry" />
        </mxCell>
        <mxCell id="YQK4Ysnu9C63STyvXHJZ-73" style="shape=partialRectangle;connectable=0;fillColor=none;top=0;left=0;bottom=0;right=0;editable=1;overflow=hidden;whiteSpace=wrap;html=1;" parent="YQK4Ysnu9C63STyvXHJZ-72" vertex="1">
          <mxGeometry width="30" height="30" as="geometry">
            <mxRectangle width="30" height="30" as="alternateBounds" />
          </mxGeometry>
        </mxCell>
        <mxCell id="YQK4Ysnu9C63STyvXHJZ-74" value="subscribe end at (date)" style="shape=partialRectangle;connectable=0;fillColor=none;top=0;left=0;bottom=0;right=0;align=left;spacingLeft=6;overflow=hidden;whiteSpace=wrap;html=1;" parent="YQK4Ysnu9C63STyvXHJZ-72" vertex="1">
          <mxGeometry x="30" width="150" height="30" as="geometry">
            <mxRectangle width="150" height="30" as="alternateBounds" />
          </mxGeometry>
        </mxCell>
        <mxCell id="YQK4Ysnu9C63STyvXHJZ-93" style="edgeStyle=orthogonalEdgeStyle;rounded=0;orthogonalLoop=1;jettySize=auto;html=1;exitX=0;exitY=0.5;exitDx=0;exitDy=0;entryX=1;entryY=0.5;entryDx=0;entryDy=0;" parent="YQK4Ysnu9C63STyvXHJZ-76" source="YQK4Ysnu9C63STyvXHJZ-63" target="YQK4Ysnu9C63STyvXHJZ-41" edge="1">
          <mxGeometry relative="1" as="geometry" />
        </mxCell>
        <mxCell id="YSm_qsmvIpg8bXdUCa1W-1" value="&lt;h1&gt;Subscribtion&lt;/h1&gt;" style="text;html=1;strokeColor=none;fillColor=none;spacing=5;spacingTop=-20;whiteSpace=wrap;overflow=hidden;rounded=0;" parent="YQK4Ysnu9C63STyvXHJZ-76" vertex="1">
          <mxGeometry x="321.25" y="50" width="157.5" height="40" as="geometry" />
        </mxCell>
        <mxCell id="YSm_qsmvIpg8bXdUCa1W-2" style="edgeStyle=orthogonalEdgeStyle;rounded=0;orthogonalLoop=1;jettySize=auto;html=1;exitX=0;exitY=0.5;exitDx=0;exitDy=0;entryX=0;entryY=0.5;entryDx=0;entryDy=0;" parent="YQK4Ysnu9C63STyvXHJZ-76" source="YQK4Ysnu9C63STyvXHJZ-44" target="YQK4Ysnu9C63STyvXHJZ-25" edge="1">
          <mxGeometry relative="1" as="geometry" />
        </mxCell>
        <mxCell id="YQK4Ysnu9C63STyvXHJZ-79" style="edgeStyle=orthogonalEdgeStyle;rounded=0;orthogonalLoop=1;jettySize=auto;html=1;exitX=1;exitY=0.5;exitDx=0;exitDy=0;entryX=0;entryY=0.5;entryDx=0;entryDy=0;" parent="1" source="YQK4Ysnu9C63STyvXHJZ-66" target="2C0zCBsF6jFKkmQKUa8t-3" edge="1">
          <mxGeometry relative="1" as="geometry">
            <Array as="points">
              <mxPoint x="512" y="378" />
              <mxPoint x="512" y="311" />
            </Array>
          </mxGeometry>
        </mxCell>
        <mxCell id="YQK4Ysnu9C63STyvXHJZ-80" value="Authentication Method" style="shape=table;startSize=30;container=1;collapsible=1;childLayout=tableLayout;fixedRows=1;rowLines=0;fontStyle=1;align=center;resizeLast=1;html=1;swimlaneLine=0;rounded=1;fillColor=#6a00ff;fontColor=#ffffff;strokeColor=#3700CC;swimlaneFillColor=default;" parent="1" vertex="1">
          <mxGeometry x="-155" y="-411" width="180" height="150" as="geometry" />
        </mxCell>
        <mxCell id="YQK4Ysnu9C63STyvXHJZ-81" value="" style="shape=tableRow;horizontal=0;startSize=0;swimlaneHead=0;swimlaneBody=0;fillColor=none;collapsible=0;dropTarget=0;points=[[0,0.5],[1,0.5]];portConstraint=eastwest;top=0;left=0;right=0;bottom=1;" parent="YQK4Ysnu9C63STyvXHJZ-80" vertex="1">
          <mxGeometry y="30" width="180" height="30" as="geometry" />
        </mxCell>
        <mxCell id="YQK4Ysnu9C63STyvXHJZ-82" value="PK" style="shape=partialRectangle;connectable=0;fillColor=none;top=0;left=0;bottom=0;right=0;fontStyle=1;overflow=hidden;whiteSpace=wrap;html=1;" parent="YQK4Ysnu9C63STyvXHJZ-81" vertex="1">
          <mxGeometry width="30" height="30" as="geometry">
            <mxRectangle width="30" height="30" as="alternateBounds" />
          </mxGeometry>
        </mxCell>
        <mxCell id="YQK4Ysnu9C63STyvXHJZ-83" value="Id" style="shape=partialRectangle;connectable=0;fillColor=none;top=0;left=0;bottom=0;right=0;align=left;spacingLeft=6;fontStyle=5;overflow=hidden;whiteSpace=wrap;html=1;" parent="YQK4Ysnu9C63STyvXHJZ-81" vertex="1">
          <mxGeometry x="30" width="150" height="30" as="geometry">
            <mxRectangle width="150" height="30" as="alternateBounds" />
          </mxGeometry>
        </mxCell>
        <mxCell id="YQK4Ysnu9C63STyvXHJZ-84" value="" style="shape=tableRow;horizontal=0;startSize=0;swimlaneHead=0;swimlaneBody=0;fillColor=none;collapsible=0;dropTarget=0;points=[[0,0.5],[1,0.5]];portConstraint=eastwest;top=0;left=0;right=0;bottom=0;" parent="YQK4Ysnu9C63STyvXHJZ-80" vertex="1">
          <mxGeometry y="60" width="180" height="30" as="geometry" />
        </mxCell>
        <mxCell id="YQK4Ysnu9C63STyvXHJZ-85" value="" style="shape=partialRectangle;connectable=0;fillColor=none;top=0;left=0;bottom=0;right=0;editable=1;overflow=hidden;whiteSpace=wrap;html=1;" parent="YQK4Ysnu9C63STyvXHJZ-84" vertex="1">
          <mxGeometry width="30" height="30" as="geometry">
            <mxRectangle width="30" height="30" as="alternateBounds" />
          </mxGeometry>
        </mxCell>
        <mxCell id="YQK4Ysnu9C63STyvXHJZ-86" value="name" style="shape=partialRectangle;connectable=0;fillColor=none;top=0;left=0;bottom=0;right=0;align=left;spacingLeft=6;overflow=hidden;whiteSpace=wrap;html=1;" parent="YQK4Ysnu9C63STyvXHJZ-84" vertex="1">
          <mxGeometry x="30" width="150" height="30" as="geometry">
            <mxRectangle width="150" height="30" as="alternateBounds" />
          </mxGeometry>
        </mxCell>
        <mxCell id="YQK4Ysnu9C63STyvXHJZ-87" value="" style="shape=tableRow;horizontal=0;startSize=0;swimlaneHead=0;swimlaneBody=0;fillColor=none;collapsible=0;dropTarget=0;points=[[0,0.5],[1,0.5]];portConstraint=eastwest;top=0;left=0;right=0;bottom=0;" parent="YQK4Ysnu9C63STyvXHJZ-80" vertex="1">
          <mxGeometry y="90" width="180" height="30" as="geometry" />
        </mxCell>
        <mxCell id="YQK4Ysnu9C63STyvXHJZ-88" value="" style="shape=partialRectangle;connectable=0;fillColor=none;top=0;left=0;bottom=0;right=0;editable=1;overflow=hidden;whiteSpace=wrap;html=1;" parent="YQK4Ysnu9C63STyvXHJZ-87" vertex="1">
          <mxGeometry width="30" height="30" as="geometry">
            <mxRectangle width="30" height="30" as="alternateBounds" />
          </mxGeometry>
        </mxCell>
        <mxCell id="YQK4Ysnu9C63STyvXHJZ-89" value="describtion" style="shape=partialRectangle;connectable=0;fillColor=none;top=0;left=0;bottom=0;right=0;align=left;spacingLeft=6;overflow=hidden;whiteSpace=wrap;html=1;" parent="YQK4Ysnu9C63STyvXHJZ-87" vertex="1">
          <mxGeometry x="30" width="150" height="30" as="geometry">
            <mxRectangle width="150" height="30" as="alternateBounds" />
          </mxGeometry>
        </mxCell>
        <mxCell id="YQK4Ysnu9C63STyvXHJZ-90" value="" style="shape=tableRow;horizontal=0;startSize=0;swimlaneHead=0;swimlaneBody=0;fillColor=none;collapsible=0;dropTarget=0;points=[[0,0.5],[1,0.5]];portConstraint=eastwest;top=0;left=0;right=0;bottom=0;" parent="YQK4Ysnu9C63STyvXHJZ-80" vertex="1">
          <mxGeometry y="120" width="180" height="30" as="geometry" />
        </mxCell>
        <mxCell id="YQK4Ysnu9C63STyvXHJZ-91" value="" style="shape=partialRectangle;connectable=0;fillColor=none;top=0;left=0;bottom=0;right=0;editable=1;overflow=hidden;whiteSpace=wrap;html=1;" parent="YQK4Ysnu9C63STyvXHJZ-90" vertex="1">
          <mxGeometry width="30" height="30" as="geometry">
            <mxRectangle width="30" height="30" as="alternateBounds" />
          </mxGeometry>
        </mxCell>
        <mxCell id="YQK4Ysnu9C63STyvXHJZ-92" value="identifier" style="shape=partialRectangle;connectable=0;fillColor=none;top=0;left=0;bottom=0;right=0;align=left;spacingLeft=6;overflow=hidden;whiteSpace=wrap;html=1;" parent="YQK4Ysnu9C63STyvXHJZ-90" vertex="1">
          <mxGeometry x="30" width="150" height="30" as="geometry">
            <mxRectangle width="150" height="30" as="alternateBounds" />
          </mxGeometry>
        </mxCell>
        <mxCell id="YSm_qsmvIpg8bXdUCa1W-92" value="" style="rounded=1;whiteSpace=wrap;html=1;movable=1;resizable=1;rotatable=1;deletable=1;editable=1;locked=0;connectable=1;" parent="1" vertex="1">
          <mxGeometry x="-470" y="943" width="690" height="770" as="geometry" />
        </mxCell>
        <mxCell id="YSm_qsmvIpg8bXdUCa1W-93" value="Equipment" style="shape=table;startSize=30;container=1;collapsible=1;childLayout=tableLayout;fixedRows=1;rowLines=0;fontStyle=1;align=center;resizeLast=1;html=1;swimlaneLine=0;rounded=1;fillColor=#a0522d;fontColor=#ffffff;strokeColor=#6D1F00;" parent="1" vertex="1">
          <mxGeometry x="-215" y="1241" width="180" height="150" as="geometry" />
        </mxCell>
        <mxCell id="YSm_qsmvIpg8bXdUCa1W-94" value="" style="shape=tableRow;horizontal=0;startSize=0;swimlaneHead=0;swimlaneBody=0;fillColor=none;collapsible=0;dropTarget=0;points=[[0,0.5],[1,0.5]];portConstraint=eastwest;top=0;left=0;right=0;bottom=1;" parent="YSm_qsmvIpg8bXdUCa1W-93" vertex="1">
          <mxGeometry y="30" width="180" height="30" as="geometry" />
        </mxCell>
        <mxCell id="YSm_qsmvIpg8bXdUCa1W-95" value="PK" style="shape=partialRectangle;connectable=0;fillColor=none;top=0;left=0;bottom=0;right=0;fontStyle=1;overflow=hidden;whiteSpace=wrap;html=1;" parent="YSm_qsmvIpg8bXdUCa1W-94" vertex="1">
          <mxGeometry width="30" height="30" as="geometry">
            <mxRectangle width="30" height="30" as="alternateBounds" />
          </mxGeometry>
        </mxCell>
        <mxCell id="YSm_qsmvIpg8bXdUCa1W-96" value="Id" style="shape=partialRectangle;connectable=0;fillColor=none;top=0;left=0;bottom=0;right=0;align=left;spacingLeft=6;fontStyle=5;overflow=hidden;whiteSpace=wrap;html=1;" parent="YSm_qsmvIpg8bXdUCa1W-94" vertex="1">
          <mxGeometry x="30" width="150" height="30" as="geometry">
            <mxRectangle width="150" height="30" as="alternateBounds" />
          </mxGeometry>
        </mxCell>
        <mxCell id="YSm_qsmvIpg8bXdUCa1W-97" value="" style="shape=tableRow;horizontal=0;startSize=0;swimlaneHead=0;swimlaneBody=0;fillColor=none;collapsible=0;dropTarget=0;points=[[0,0.5],[1,0.5]];portConstraint=eastwest;top=0;left=0;right=0;bottom=0;" parent="YSm_qsmvIpg8bXdUCa1W-93" vertex="1">
          <mxGeometry y="60" width="180" height="30" as="geometry" />
        </mxCell>
        <mxCell id="YSm_qsmvIpg8bXdUCa1W-98" value="" style="shape=partialRectangle;connectable=0;fillColor=none;top=0;left=0;bottom=0;right=0;editable=1;overflow=hidden;whiteSpace=wrap;html=1;" parent="YSm_qsmvIpg8bXdUCa1W-97" vertex="1">
          <mxGeometry width="30" height="30" as="geometry">
            <mxRectangle width="30" height="30" as="alternateBounds" />
          </mxGeometry>
        </mxCell>
        <mxCell id="YSm_qsmvIpg8bXdUCa1W-99" value="name" style="shape=partialRectangle;connectable=0;fillColor=none;top=0;left=0;bottom=0;right=0;align=left;spacingLeft=6;overflow=hidden;whiteSpace=wrap;html=1;" parent="YSm_qsmvIpg8bXdUCa1W-97" vertex="1">
          <mxGeometry x="30" width="150" height="30" as="geometry">
            <mxRectangle width="150" height="30" as="alternateBounds" />
          </mxGeometry>
        </mxCell>
        <mxCell id="YSm_qsmvIpg8bXdUCa1W-100" value="" style="shape=tableRow;horizontal=0;startSize=0;swimlaneHead=0;swimlaneBody=0;fillColor=none;collapsible=0;dropTarget=0;points=[[0,0.5],[1,0.5]];portConstraint=eastwest;top=0;left=0;right=0;bottom=0;" parent="YSm_qsmvIpg8bXdUCa1W-93" vertex="1">
          <mxGeometry y="90" width="180" height="30" as="geometry" />
        </mxCell>
        <mxCell id="YSm_qsmvIpg8bXdUCa1W-101" value="" style="shape=partialRectangle;connectable=0;fillColor=none;top=0;left=0;bottom=0;right=0;editable=1;overflow=hidden;whiteSpace=wrap;html=1;" parent="YSm_qsmvIpg8bXdUCa1W-100" vertex="1">
          <mxGeometry width="30" height="30" as="geometry">
            <mxRectangle width="30" height="30" as="alternateBounds" />
          </mxGeometry>
        </mxCell>
        <mxCell id="YSm_qsmvIpg8bXdUCa1W-102" value="describtion" style="shape=partialRectangle;connectable=0;fillColor=none;top=0;left=0;bottom=0;right=0;align=left;spacingLeft=6;overflow=hidden;whiteSpace=wrap;html=1;" parent="YSm_qsmvIpg8bXdUCa1W-100" vertex="1">
          <mxGeometry x="30" width="150" height="30" as="geometry">
            <mxRectangle width="150" height="30" as="alternateBounds" />
          </mxGeometry>
        </mxCell>
        <mxCell id="5e8xEtgHr6Df8SR7HKBj-4" style="shape=tableRow;horizontal=0;startSize=0;swimlaneHead=0;swimlaneBody=0;fillColor=none;collapsible=0;dropTarget=0;points=[[0,0.5],[1,0.5]];portConstraint=eastwest;top=0;left=0;right=0;bottom=0;" parent="YSm_qsmvIpg8bXdUCa1W-93" vertex="1">
          <mxGeometry y="120" width="180" height="30" as="geometry" />
        </mxCell>
        <mxCell id="5e8xEtgHr6Df8SR7HKBj-5" style="shape=partialRectangle;connectable=0;fillColor=none;top=0;left=0;bottom=0;right=0;editable=1;overflow=hidden;whiteSpace=wrap;html=1;" parent="5e8xEtgHr6Df8SR7HKBj-4" vertex="1">
          <mxGeometry width="30" height="30" as="geometry">
            <mxRectangle width="30" height="30" as="alternateBounds" />
          </mxGeometry>
        </mxCell>
        <mxCell id="5e8xEtgHr6Df8SR7HKBj-6" value="Gym" style="shape=partialRectangle;connectable=0;fillColor=none;top=0;left=0;bottom=0;right=0;align=left;spacingLeft=6;overflow=hidden;whiteSpace=wrap;html=1;" parent="5e8xEtgHr6Df8SR7HKBj-4" vertex="1">
          <mxGeometry x="30" width="150" height="30" as="geometry">
            <mxRectangle width="150" height="30" as="alternateBounds" />
          </mxGeometry>
        </mxCell>
        <mxCell id="YSm_qsmvIpg8bXdUCa1W-182" value="" style="group;" parent="1" vertex="1" connectable="0">
          <mxGeometry x="1123" y="1043" width="450" height="530" as="geometry" />
        </mxCell>
        <mxCell id="YSm_qsmvIpg8bXdUCa1W-71" value="" style="rounded=1;whiteSpace=wrap;html=1;movable=1;resizable=1;rotatable=1;deletable=1;editable=1;locked=0;connectable=1;" parent="YSm_qsmvIpg8bXdUCa1W-182" vertex="1">
          <mxGeometry width="450" height="530" as="geometry" />
        </mxCell>
        <mxCell id="YSm_qsmvIpg8bXdUCa1W-129" value="Course" style="shape=table;startSize=30;container=1;collapsible=1;childLayout=tableLayout;fixedRows=1;rowLines=0;fontStyle=1;align=center;resizeLast=1;html=1;swimlaneLine=0;rounded=1;fillColor=#76608a;fontColor=#ffffff;strokeColor=#432D57;" parent="YSm_qsmvIpg8bXdUCa1W-182" vertex="1">
          <mxGeometry x="135" y="160" width="180" height="210" as="geometry" />
        </mxCell>
        <mxCell id="YSm_qsmvIpg8bXdUCa1W-130" value="" style="shape=tableRow;horizontal=0;startSize=0;swimlaneHead=0;swimlaneBody=0;fillColor=none;collapsible=0;dropTarget=0;points=[[0,0.5],[1,0.5]];portConstraint=eastwest;top=0;left=0;right=0;bottom=1;" parent="YSm_qsmvIpg8bXdUCa1W-129" vertex="1">
          <mxGeometry y="30" width="180" height="30" as="geometry" />
        </mxCell>
        <mxCell id="YSm_qsmvIpg8bXdUCa1W-131" value="PK" style="shape=partialRectangle;connectable=0;fillColor=none;top=0;left=0;bottom=0;right=0;fontStyle=1;overflow=hidden;whiteSpace=wrap;html=1;" parent="YSm_qsmvIpg8bXdUCa1W-130" vertex="1">
          <mxGeometry width="30" height="30" as="geometry">
            <mxRectangle width="30" height="30" as="alternateBounds" />
          </mxGeometry>
        </mxCell>
        <mxCell id="YSm_qsmvIpg8bXdUCa1W-132" value="Id" style="shape=partialRectangle;connectable=0;fillColor=none;top=0;left=0;bottom=0;right=0;align=left;spacingLeft=6;fontStyle=5;overflow=hidden;whiteSpace=wrap;html=1;" parent="YSm_qsmvIpg8bXdUCa1W-130" vertex="1">
          <mxGeometry x="30" width="150" height="30" as="geometry">
            <mxRectangle width="150" height="30" as="alternateBounds" />
          </mxGeometry>
        </mxCell>
        <mxCell id="YSm_qsmvIpg8bXdUCa1W-133" value="" style="shape=tableRow;horizontal=0;startSize=0;swimlaneHead=0;swimlaneBody=0;fillColor=none;collapsible=0;dropTarget=0;points=[[0,0.5],[1,0.5]];portConstraint=eastwest;top=0;left=0;right=0;bottom=0;" parent="YSm_qsmvIpg8bXdUCa1W-129" vertex="1">
          <mxGeometry y="60" width="180" height="30" as="geometry" />
        </mxCell>
        <mxCell id="YSm_qsmvIpg8bXdUCa1W-134" value="" style="shape=partialRectangle;connectable=0;fillColor=none;top=0;left=0;bottom=0;right=0;editable=1;overflow=hidden;whiteSpace=wrap;html=1;" parent="YSm_qsmvIpg8bXdUCa1W-133" vertex="1">
          <mxGeometry width="30" height="30" as="geometry">
            <mxRectangle width="30" height="30" as="alternateBounds" />
          </mxGeometry>
        </mxCell>
        <mxCell id="YSm_qsmvIpg8bXdUCa1W-135" value="User" style="shape=partialRectangle;connectable=0;fillColor=none;top=0;left=0;bottom=0;right=0;align=left;spacingLeft=6;overflow=hidden;whiteSpace=wrap;html=1;" parent="YSm_qsmvIpg8bXdUCa1W-133" vertex="1">
          <mxGeometry x="30" width="150" height="30" as="geometry">
            <mxRectangle width="150" height="30" as="alternateBounds" />
          </mxGeometry>
        </mxCell>
        <mxCell id="YSm_qsmvIpg8bXdUCa1W-136" value="" style="shape=tableRow;horizontal=0;startSize=0;swimlaneHead=0;swimlaneBody=0;fillColor=none;collapsible=0;dropTarget=0;points=[[0,0.5],[1,0.5]];portConstraint=eastwest;top=0;left=0;right=0;bottom=0;" parent="YSm_qsmvIpg8bXdUCa1W-129" vertex="1">
          <mxGeometry y="90" width="180" height="30" as="geometry" />
        </mxCell>
        <mxCell id="YSm_qsmvIpg8bXdUCa1W-137" value="" style="shape=partialRectangle;connectable=0;fillColor=none;top=0;left=0;bottom=0;right=0;editable=1;overflow=hidden;whiteSpace=wrap;html=1;" parent="YSm_qsmvIpg8bXdUCa1W-136" vertex="1">
          <mxGeometry width="30" height="30" as="geometry">
            <mxRectangle width="30" height="30" as="alternateBounds" />
          </mxGeometry>
        </mxCell>
        <mxCell id="YSm_qsmvIpg8bXdUCa1W-138" value="start at" style="shape=partialRectangle;connectable=0;fillColor=none;top=0;left=0;bottom=0;right=0;align=left;spacingLeft=6;overflow=hidden;whiteSpace=wrap;html=1;" parent="YSm_qsmvIpg8bXdUCa1W-136" vertex="1">
          <mxGeometry x="30" width="150" height="30" as="geometry">
            <mxRectangle width="150" height="30" as="alternateBounds" />
          </mxGeometry>
        </mxCell>
        <mxCell id="YSm_qsmvIpg8bXdUCa1W-139" value="" style="shape=tableRow;horizontal=0;startSize=0;swimlaneHead=0;swimlaneBody=0;fillColor=none;collapsible=0;dropTarget=0;points=[[0,0.5],[1,0.5]];portConstraint=eastwest;top=0;left=0;right=0;bottom=0;" parent="YSm_qsmvIpg8bXdUCa1W-129" vertex="1">
          <mxGeometry y="120" width="180" height="30" as="geometry" />
        </mxCell>
        <mxCell id="YSm_qsmvIpg8bXdUCa1W-140" value="" style="shape=partialRectangle;connectable=0;fillColor=none;top=0;left=0;bottom=0;right=0;editable=1;overflow=hidden;whiteSpace=wrap;html=1;" parent="YSm_qsmvIpg8bXdUCa1W-139" vertex="1">
          <mxGeometry width="30" height="30" as="geometry">
            <mxRectangle width="30" height="30" as="alternateBounds" />
          </mxGeometry>
        </mxCell>
        <mxCell id="YSm_qsmvIpg8bXdUCa1W-141" value="end at" style="shape=partialRectangle;connectable=0;fillColor=none;top=0;left=0;bottom=0;right=0;align=left;spacingLeft=6;overflow=hidden;whiteSpace=wrap;html=1;" parent="YSm_qsmvIpg8bXdUCa1W-139" vertex="1">
          <mxGeometry x="30" width="150" height="30" as="geometry">
            <mxRectangle width="150" height="30" as="alternateBounds" />
          </mxGeometry>
        </mxCell>
        <mxCell id="5e8xEtgHr6Df8SR7HKBj-1" style="shape=tableRow;horizontal=0;startSize=0;swimlaneHead=0;swimlaneBody=0;fillColor=none;collapsible=0;dropTarget=0;points=[[0,0.5],[1,0.5]];portConstraint=eastwest;top=0;left=0;right=0;bottom=0;" parent="YSm_qsmvIpg8bXdUCa1W-129" vertex="1">
          <mxGeometry y="150" width="180" height="30" as="geometry" />
        </mxCell>
        <mxCell id="5e8xEtgHr6Df8SR7HKBj-2" style="shape=partialRectangle;connectable=0;fillColor=none;top=0;left=0;bottom=0;right=0;editable=1;overflow=hidden;whiteSpace=wrap;html=1;" parent="5e8xEtgHr6Df8SR7HKBj-1" vertex="1">
          <mxGeometry width="30" height="30" as="geometry">
            <mxRectangle width="30" height="30" as="alternateBounds" />
          </mxGeometry>
        </mxCell>
        <mxCell id="5e8xEtgHr6Df8SR7HKBj-3" value="Gym" style="shape=partialRectangle;connectable=0;fillColor=none;top=0;left=0;bottom=0;right=0;align=left;spacingLeft=6;overflow=hidden;whiteSpace=wrap;html=1;" parent="5e8xEtgHr6Df8SR7HKBj-1" vertex="1">
          <mxGeometry x="30" width="150" height="30" as="geometry">
            <mxRectangle width="150" height="30" as="alternateBounds" />
          </mxGeometry>
        </mxCell>
        <mxCell id="Ct2uauPp7oG3WegLJJji-1" style="shape=tableRow;horizontal=0;startSize=0;swimlaneHead=0;swimlaneBody=0;fillColor=none;collapsible=0;dropTarget=0;points=[[0,0.5],[1,0.5]];portConstraint=eastwest;top=0;left=0;right=0;bottom=0;" parent="YSm_qsmvIpg8bXdUCa1W-129" vertex="1">
          <mxGeometry y="180" width="180" height="30" as="geometry" />
        </mxCell>
        <mxCell id="Ct2uauPp7oG3WegLJJji-2" style="shape=partialRectangle;connectable=0;fillColor=none;top=0;left=0;bottom=0;right=0;editable=1;overflow=hidden;whiteSpace=wrap;html=1;" parent="Ct2uauPp7oG3WegLJJji-1" vertex="1">
          <mxGeometry width="30" height="30" as="geometry">
            <mxRectangle width="30" height="30" as="alternateBounds" />
          </mxGeometry>
        </mxCell>
        <mxCell id="Ct2uauPp7oG3WegLJJji-3" value="details (json)" style="shape=partialRectangle;connectable=0;fillColor=none;top=0;left=0;bottom=0;right=0;align=left;spacingLeft=6;overflow=hidden;whiteSpace=wrap;html=1;" parent="Ct2uauPp7oG3WegLJJji-1" vertex="1">
          <mxGeometry x="30" width="150" height="30" as="geometry">
            <mxRectangle width="150" height="30" as="alternateBounds" />
          </mxGeometry>
        </mxCell>
        <mxCell id="YSm_qsmvIpg8bXdUCa1W-183" value="User Statistics" style="shape=table;startSize=30;container=1;collapsible=1;childLayout=tableLayout;fixedRows=1;rowLines=0;fontStyle=1;align=center;resizeLast=1;html=1;swimlaneLine=0;rounded=1;fillColor=#6d8764;fontColor=#ffffff;strokeColor=#3A5431;" parent="1" vertex="1">
          <mxGeometry x="-155" y="-206" width="180" height="120" as="geometry" />
        </mxCell>
        <mxCell id="YSm_qsmvIpg8bXdUCa1W-184" value="" style="shape=tableRow;horizontal=0;startSize=0;swimlaneHead=0;swimlaneBody=0;fillColor=none;collapsible=0;dropTarget=0;points=[[0,0.5],[1,0.5]];portConstraint=eastwest;top=0;left=0;right=0;bottom=1;" parent="YSm_qsmvIpg8bXdUCa1W-183" vertex="1">
          <mxGeometry y="30" width="180" height="30" as="geometry" />
        </mxCell>
        <mxCell id="YSm_qsmvIpg8bXdUCa1W-185" value="PK" style="shape=partialRectangle;connectable=0;fillColor=none;top=0;left=0;bottom=0;right=0;fontStyle=1;overflow=hidden;whiteSpace=wrap;html=1;" parent="YSm_qsmvIpg8bXdUCa1W-184" vertex="1">
          <mxGeometry width="30" height="30" as="geometry">
            <mxRectangle width="30" height="30" as="alternateBounds" />
          </mxGeometry>
        </mxCell>
        <mxCell id="YSm_qsmvIpg8bXdUCa1W-186" value="Id" style="shape=partialRectangle;connectable=0;fillColor=none;top=0;left=0;bottom=0;right=0;align=left;spacingLeft=6;fontStyle=5;overflow=hidden;whiteSpace=wrap;html=1;" parent="YSm_qsmvIpg8bXdUCa1W-184" vertex="1">
          <mxGeometry x="30" width="150" height="30" as="geometry">
            <mxRectangle width="150" height="30" as="alternateBounds" />
          </mxGeometry>
        </mxCell>
        <mxCell id="YSm_qsmvIpg8bXdUCa1W-187" value="" style="shape=tableRow;horizontal=0;startSize=0;swimlaneHead=0;swimlaneBody=0;fillColor=none;collapsible=0;dropTarget=0;points=[[0,0.5],[1,0.5]];portConstraint=eastwest;top=0;left=0;right=0;bottom=0;" parent="YSm_qsmvIpg8bXdUCa1W-183" vertex="1">
          <mxGeometry y="60" width="180" height="30" as="geometry" />
        </mxCell>
        <mxCell id="YSm_qsmvIpg8bXdUCa1W-188" value="" style="shape=partialRectangle;connectable=0;fillColor=none;top=0;left=0;bottom=0;right=0;editable=1;overflow=hidden;whiteSpace=wrap;html=1;" parent="YSm_qsmvIpg8bXdUCa1W-187" vertex="1">
          <mxGeometry width="30" height="30" as="geometry">
            <mxRectangle width="30" height="30" as="alternateBounds" />
          </mxGeometry>
        </mxCell>
        <mxCell id="YSm_qsmvIpg8bXdUCa1W-189" value="User" style="shape=partialRectangle;connectable=0;fillColor=none;top=0;left=0;bottom=0;right=0;align=left;spacingLeft=6;overflow=hidden;whiteSpace=wrap;html=1;" parent="YSm_qsmvIpg8bXdUCa1W-187" vertex="1">
          <mxGeometry x="30" width="150" height="30" as="geometry">
            <mxRectangle width="150" height="30" as="alternateBounds" />
          </mxGeometry>
        </mxCell>
        <mxCell id="YSm_qsmvIpg8bXdUCa1W-190" value="" style="shape=tableRow;horizontal=0;startSize=0;swimlaneHead=0;swimlaneBody=0;fillColor=none;collapsible=0;dropTarget=0;points=[[0,0.5],[1,0.5]];portConstraint=eastwest;top=0;left=0;right=0;bottom=0;" parent="YSm_qsmvIpg8bXdUCa1W-183" vertex="1">
          <mxGeometry y="90" width="180" height="30" as="geometry" />
        </mxCell>
        <mxCell id="YSm_qsmvIpg8bXdUCa1W-191" value="" style="shape=partialRectangle;connectable=0;fillColor=none;top=0;left=0;bottom=0;right=0;editable=1;overflow=hidden;whiteSpace=wrap;html=1;" parent="YSm_qsmvIpg8bXdUCa1W-190" vertex="1">
          <mxGeometry width="30" height="30" as="geometry">
            <mxRectangle width="30" height="30" as="alternateBounds" />
          </mxGeometry>
        </mxCell>
        <mxCell id="YSm_qsmvIpg8bXdUCa1W-192" value="Statistics" style="shape=partialRectangle;connectable=0;fillColor=none;top=0;left=0;bottom=0;right=0;align=left;spacingLeft=6;overflow=hidden;whiteSpace=wrap;html=1;" parent="YSm_qsmvIpg8bXdUCa1W-190" vertex="1">
          <mxGeometry x="30" width="150" height="30" as="geometry">
            <mxRectangle width="150" height="30" as="alternateBounds" />
          </mxGeometry>
        </mxCell>
        <mxCell id="q6qRKnQ-My-lkcH6NlpI-1" value="Gym" style="shape=table;startSize=30;container=1;collapsible=1;childLayout=tableLayout;fixedRows=1;rowLines=0;fontStyle=1;align=center;resizeLast=1;html=1;swimlaneLine=0;rounded=1;fillColor=#0050ef;fontColor=#ffffff;strokeColor=#001DBC;" parent="1" vertex="1">
          <mxGeometry x="455" y="805" width="180" height="180" as="geometry" />
        </mxCell>
        <mxCell id="q6qRKnQ-My-lkcH6NlpI-2" value="" style="shape=tableRow;horizontal=0;startSize=0;swimlaneHead=0;swimlaneBody=0;fillColor=none;collapsible=0;dropTarget=0;points=[[0,0.5],[1,0.5]];portConstraint=eastwest;top=0;left=0;right=0;bottom=1;" parent="q6qRKnQ-My-lkcH6NlpI-1" vertex="1">
          <mxGeometry y="30" width="180" height="30" as="geometry" />
        </mxCell>
        <mxCell id="q6qRKnQ-My-lkcH6NlpI-3" value="PK" style="shape=partialRectangle;connectable=0;fillColor=none;top=0;left=0;bottom=0;right=0;fontStyle=1;overflow=hidden;whiteSpace=wrap;html=1;" parent="q6qRKnQ-My-lkcH6NlpI-2" vertex="1">
          <mxGeometry width="30" height="30" as="geometry">
            <mxRectangle width="30" height="30" as="alternateBounds" />
          </mxGeometry>
        </mxCell>
        <mxCell id="q6qRKnQ-My-lkcH6NlpI-4" value="Id" style="shape=partialRectangle;connectable=0;fillColor=none;top=0;left=0;bottom=0;right=0;align=left;spacingLeft=6;fontStyle=5;overflow=hidden;whiteSpace=wrap;html=1;" parent="q6qRKnQ-My-lkcH6NlpI-2" vertex="1">
          <mxGeometry x="30" width="150" height="30" as="geometry">
            <mxRectangle width="150" height="30" as="alternateBounds" />
          </mxGeometry>
        </mxCell>
        <mxCell id="q6qRKnQ-My-lkcH6NlpI-5" value="" style="shape=tableRow;horizontal=0;startSize=0;swimlaneHead=0;swimlaneBody=0;fillColor=none;collapsible=0;dropTarget=0;points=[[0,0.5],[1,0.5]];portConstraint=eastwest;top=0;left=0;right=0;bottom=0;" parent="q6qRKnQ-My-lkcH6NlpI-1" vertex="1">
          <mxGeometry y="60" width="180" height="30" as="geometry" />
        </mxCell>
        <mxCell id="q6qRKnQ-My-lkcH6NlpI-6" value="" style="shape=partialRectangle;connectable=0;fillColor=none;top=0;left=0;bottom=0;right=0;editable=1;overflow=hidden;whiteSpace=wrap;html=1;" parent="q6qRKnQ-My-lkcH6NlpI-5" vertex="1">
          <mxGeometry width="30" height="30" as="geometry">
            <mxRectangle width="30" height="30" as="alternateBounds" />
          </mxGeometry>
        </mxCell>
        <mxCell id="q6qRKnQ-My-lkcH6NlpI-7" value="name" style="shape=partialRectangle;connectable=0;fillColor=none;top=0;left=0;bottom=0;right=0;align=left;spacingLeft=6;overflow=hidden;whiteSpace=wrap;html=1;" parent="q6qRKnQ-My-lkcH6NlpI-5" vertex="1">
          <mxGeometry x="30" width="150" height="30" as="geometry">
            <mxRectangle width="150" height="30" as="alternateBounds" />
          </mxGeometry>
        </mxCell>
        <mxCell id="q6qRKnQ-My-lkcH6NlpI-8" value="" style="shape=tableRow;horizontal=0;startSize=0;swimlaneHead=0;swimlaneBody=0;fillColor=none;collapsible=0;dropTarget=0;points=[[0,0.5],[1,0.5]];portConstraint=eastwest;top=0;left=0;right=0;bottom=0;" parent="q6qRKnQ-My-lkcH6NlpI-1" vertex="1">
          <mxGeometry y="90" width="180" height="30" as="geometry" />
        </mxCell>
        <mxCell id="q6qRKnQ-My-lkcH6NlpI-9" value="" style="shape=partialRectangle;connectable=0;fillColor=none;top=0;left=0;bottom=0;right=0;editable=1;overflow=hidden;whiteSpace=wrap;html=1;" parent="q6qRKnQ-My-lkcH6NlpI-8" vertex="1">
          <mxGeometry width="30" height="30" as="geometry">
            <mxRectangle width="30" height="30" as="alternateBounds" />
          </mxGeometry>
        </mxCell>
        <mxCell id="q6qRKnQ-My-lkcH6NlpI-10" value="description" style="shape=partialRectangle;connectable=0;fillColor=none;top=0;left=0;bottom=0;right=0;align=left;spacingLeft=6;overflow=hidden;whiteSpace=wrap;html=1;" parent="q6qRKnQ-My-lkcH6NlpI-8" vertex="1">
          <mxGeometry x="30" width="150" height="30" as="geometry">
            <mxRectangle width="150" height="30" as="alternateBounds" />
          </mxGeometry>
        </mxCell>
        <mxCell id="q6qRKnQ-My-lkcH6NlpI-11" value="" style="shape=tableRow;horizontal=0;startSize=0;swimlaneHead=0;swimlaneBody=0;fillColor=none;collapsible=0;dropTarget=0;points=[[0,0.5],[1,0.5]];portConstraint=eastwest;top=0;left=0;right=0;bottom=0;" parent="q6qRKnQ-My-lkcH6NlpI-1" vertex="1">
          <mxGeometry y="120" width="180" height="30" as="geometry" />
        </mxCell>
        <mxCell id="q6qRKnQ-My-lkcH6NlpI-12" value="" style="shape=partialRectangle;connectable=0;fillColor=none;top=0;left=0;bottom=0;right=0;editable=1;overflow=hidden;whiteSpace=wrap;html=1;" parent="q6qRKnQ-My-lkcH6NlpI-11" vertex="1">
          <mxGeometry width="30" height="30" as="geometry">
            <mxRectangle width="30" height="30" as="alternateBounds" />
          </mxGeometry>
        </mxCell>
        <mxCell id="q6qRKnQ-My-lkcH6NlpI-13" value="location" style="shape=partialRectangle;connectable=0;fillColor=none;top=0;left=0;bottom=0;right=0;align=left;spacingLeft=6;overflow=hidden;whiteSpace=wrap;html=1;" parent="q6qRKnQ-My-lkcH6NlpI-11" vertex="1">
          <mxGeometry x="30" width="150" height="30" as="geometry">
            <mxRectangle width="150" height="30" as="alternateBounds" />
          </mxGeometry>
        </mxCell>
        <mxCell id="q6qRKnQ-My-lkcH6NlpI-14" style="shape=tableRow;horizontal=0;startSize=0;swimlaneHead=0;swimlaneBody=0;fillColor=none;collapsible=0;dropTarget=0;points=[[0,0.5],[1,0.5]];portConstraint=eastwest;top=0;left=0;right=0;bottom=0;" parent="q6qRKnQ-My-lkcH6NlpI-1" vertex="1">
          <mxGeometry y="150" width="180" height="30" as="geometry" />
        </mxCell>
        <mxCell id="q6qRKnQ-My-lkcH6NlpI-15" style="shape=partialRectangle;connectable=0;fillColor=none;top=0;left=0;bottom=0;right=0;editable=1;overflow=hidden;whiteSpace=wrap;html=1;" parent="q6qRKnQ-My-lkcH6NlpI-14" vertex="1">
          <mxGeometry width="30" height="30" as="geometry">
            <mxRectangle width="30" height="30" as="alternateBounds" />
          </mxGeometry>
        </mxCell>
        <mxCell id="q6qRKnQ-My-lkcH6NlpI-16" value="other info ( add later )" style="shape=partialRectangle;connectable=0;fillColor=none;top=0;left=0;bottom=0;right=0;align=left;spacingLeft=6;overflow=hidden;whiteSpace=wrap;html=1;" parent="q6qRKnQ-My-lkcH6NlpI-14" vertex="1">
          <mxGeometry x="30" width="150" height="30" as="geometry">
            <mxRectangle width="150" height="30" as="alternateBounds" />
          </mxGeometry>
        </mxCell>
        <mxCell id="5e8xEtgHr6Df8SR7HKBj-37" style="edgeStyle=orthogonalEdgeStyle;rounded=0;orthogonalLoop=1;jettySize=auto;html=1;exitX=1;exitY=0.5;exitDx=0;exitDy=0;entryX=0;entryY=0.5;entryDx=0;entryDy=0;" parent="1" source="5e8xEtgHr6Df8SR7HKBj-21" target="q6qRKnQ-My-lkcH6NlpI-2" edge="1">
          <mxGeometry relative="1" as="geometry">
            <Array as="points">
              <mxPoint x="-161" y="298" />
              <mxPoint x="-161" y="212" />
              <mxPoint x="378" y="212" />
              <mxPoint x="378" y="850" />
            </Array>
          </mxGeometry>
        </mxCell>
        <mxCell id="5e8xEtgHr6Df8SR7HKBj-42" style="edgeStyle=orthogonalEdgeStyle;rounded=0;orthogonalLoop=1;jettySize=auto;html=1;exitX=1;exitY=0.5;exitDx=0;exitDy=0;entryX=0;entryY=0.5;entryDx=0;entryDy=0;" parent="1" source="YSm_qsmvIpg8bXdUCa1W-133" target="2C0zCBsF6jFKkmQKUa8t-3" edge="1">
          <mxGeometry relative="1" as="geometry">
            <Array as="points">
              <mxPoint x="1518" y="1279" />
              <mxPoint x="1518" y="848" />
              <mxPoint x="824" y="848" />
              <mxPoint x="824" y="311" />
            </Array>
          </mxGeometry>
        </mxCell>
        <mxCell id="5e8xEtgHr6Df8SR7HKBj-43" style="edgeStyle=orthogonalEdgeStyle;rounded=0;orthogonalLoop=1;jettySize=auto;html=1;exitX=0;exitY=0.5;exitDx=0;exitDy=0;entryX=1;entryY=0.5;entryDx=0;entryDy=0;" parent="1" source="5e8xEtgHr6Df8SR7HKBj-1" target="q6qRKnQ-My-lkcH6NlpI-2" edge="1">
          <mxGeometry relative="1" as="geometry">
            <Array as="points">
              <mxPoint x="719" y="1369" />
              <mxPoint x="719" y="850" />
            </Array>
          </mxGeometry>
        </mxCell>
        <mxCell id="5e8xEtgHr6Df8SR7HKBj-47" style="edgeStyle=orthogonalEdgeStyle;rounded=0;orthogonalLoop=1;jettySize=auto;html=1;exitX=1;exitY=0.5;exitDx=0;exitDy=0;entryX=0;entryY=0.5;entryDx=0;entryDy=0;" parent="1" source="5e8xEtgHr6Df8SR7HKBj-4" target="q6qRKnQ-My-lkcH6NlpI-2" edge="1">
          <mxGeometry relative="1" as="geometry">
            <Array as="points">
              <mxPoint x="277" y="1376" />
              <mxPoint x="277" y="850" />
            </Array>
          </mxGeometry>
        </mxCell>
        <mxCell id="Ct2uauPp7oG3WegLJJji-8" style="edgeStyle=orthogonalEdgeStyle;rounded=0;orthogonalLoop=1;jettySize=auto;html=1;exitX=0;exitY=0.5;exitDx=0;exitDy=0;entryX=1;entryY=0.5;entryDx=0;entryDy=0;" parent="1" source="Ct2uauPp7oG3WegLJJji-5" target="q6qRKnQ-My-lkcH6NlpI-2" edge="1">
          <mxGeometry relative="1" as="geometry">
            <Array as="points">
              <mxPoint x="775" y="491" />
              <mxPoint x="775" y="850" />
            </Array>
          </mxGeometry>
        </mxCell>
        <mxCell id="JSXAZN5KyDYzW5ihduTY-2" value="Subscriber ( User )" style="shape=cube;whiteSpace=wrap;html=1;boundedLbl=1;backgroundOutline=1;darkOpacity=0.05;darkOpacity2=0.1;size=17;fillColor=#1ba1e2;fontColor=#ffffff;strokeColor=#006EAF;" vertex="1" parent="1">
          <mxGeometry x="960" y="-1617" width="165" height="75" as="geometry" />
        </mxCell>
        <mxCell id="JSXAZN5KyDYzW5ihduTY-3" value="Gym ( Gym )" style="shape=cube;whiteSpace=wrap;html=1;boundedLbl=1;backgroundOutline=1;darkOpacity=0.05;darkOpacity2=0.1;size=17;fillColor=#0050ef;fontColor=#ffffff;strokeColor=#001DBC;" vertex="1" parent="1">
          <mxGeometry x="983" y="-733" width="165" height="75" as="geometry" />
        </mxCell>
        <mxCell id="JSXAZN5KyDYzW5ihduTY-4" value="Staff ( User )" style="shape=cube;whiteSpace=wrap;html=1;boundedLbl=1;backgroundOutline=1;darkOpacity=0.05;darkOpacity2=0.1;size=17;fillColor=#f0a30a;fontColor=#000000;strokeColor=#BD7000;" vertex="1" parent="1">
          <mxGeometry x="976" y="-1236" width="165" height="75" as="geometry" />
        </mxCell>
        <mxCell id="JSXAZN5KyDYzW5ihduTY-5" value="Equipment (&amp;nbsp;Equipment )" style="shape=cube;whiteSpace=wrap;html=1;boundedLbl=1;backgroundOutline=1;darkOpacity=0.05;darkOpacity2=0.1;size=17;fillColor=#76608a;fontColor=#ffffff;strokeColor=#432D57;" vertex="1" parent="1">
          <mxGeometry x="-878" y="-1617" width="165" height="75" as="geometry" />
        </mxCell>
        <mxCell id="JSXAZN5KyDYzW5ihduTY-6" value="Course ( Course&amp;nbsp;)" style="shape=cube;whiteSpace=wrap;html=1;boundedLbl=1;backgroundOutline=1;darkOpacity=0.05;darkOpacity2=0.1;size=17;fillColor=#e3c800;fontColor=#000000;strokeColor=#B09500;" vertex="1" parent="1">
          <mxGeometry x="-878" y="-1236" width="165" height="75" as="geometry" />
        </mxCell>
        <mxCell id="JSXAZN5KyDYzW5ihduTY-7" value="Subscribtion&lt;br&gt;(&amp;nbsp;Subscribtion )" style="shape=cube;whiteSpace=wrap;html=1;boundedLbl=1;backgroundOutline=1;darkOpacity=0.05;darkOpacity2=0.1;size=17;fillColor=#fa6800;fontColor=#000000;strokeColor=#C73500;" vertex="1" parent="1">
          <mxGeometry x="-878" y="-733" width="165" height="75" as="geometry" />
        </mxCell>
        <mxCell id="JSXAZN5KyDYzW5ihduTY-12" style="edgeStyle=orthogonalEdgeStyle;rounded=1;orthogonalLoop=1;jettySize=auto;html=1;exitX=1.003;exitY=0.155;exitDx=0;exitDy=0;entryX=0.806;entryY=-0.013;entryDx=0;entryDy=0;entryPerimeter=0;fillColor=#1ba1e2;strokeColor=#006EAF;exitPerimeter=0;strokeWidth=2;" edge="1" parent="1" source="YQK4Ysnu9C63STyvXHJZ-7" target="JSXAZN5KyDYzW5ihduTY-2">
          <mxGeometry relative="1" as="geometry">
            <Array as="points">
              <mxPoint x="283" y="-1235" />
              <mxPoint x="283" y="-1763" />
              <mxPoint x="1093" y="-1763" />
            </Array>
          </mxGeometry>
        </mxCell>
        <mxCell id="JSXAZN5KyDYzW5ihduTY-29" value="Create, Read, Update, Delete, Soft Delete" style="edgeLabel;html=1;align=center;verticalAlign=middle;resizable=0;points=[];" vertex="1" connectable="0" parent="JSXAZN5KyDYzW5ihduTY-12">
          <mxGeometry x="0.1559" y="-2" relative="1" as="geometry">
            <mxPoint x="122" y="-3" as="offset" />
          </mxGeometry>
        </mxCell>
        <mxCell id="JSXAZN5KyDYzW5ihduTY-30" style="edgeStyle=orthogonalEdgeStyle;rounded=1;orthogonalLoop=1;jettySize=auto;html=1;exitX=1.003;exitY=0.182;exitDx=0;exitDy=0;entryX=0.663;entryY=-0.009;entryDx=0;entryDy=0;entryPerimeter=0;fillColor=#1ba1e2;strokeColor=#006EAF;exitPerimeter=0;strokeWidth=2;" edge="1" parent="1" source="YQK4Ysnu9C63STyvXHJZ-4" target="JSXAZN5KyDYzW5ihduTY-2">
          <mxGeometry relative="1" as="geometry">
            <Array as="points">
              <mxPoint x="320" y="-1205" />
              <mxPoint x="320" y="-1729" />
              <mxPoint x="1069" y="-1729" />
            </Array>
          </mxGeometry>
        </mxCell>
        <mxCell id="JSXAZN5KyDYzW5ihduTY-31" value="Create, Read, Update, Soft Delete" style="edgeLabel;html=1;align=center;verticalAlign=middle;resizable=0;points=[];" vertex="1" connectable="0" parent="JSXAZN5KyDYzW5ihduTY-30">
          <mxGeometry x="0.2927" y="1" relative="1" as="geometry">
            <mxPoint x="34" y="-1" as="offset" />
          </mxGeometry>
        </mxCell>
        <mxCell id="JSXAZN5KyDYzW5ihduTY-32" style="edgeStyle=orthogonalEdgeStyle;rounded=1;orthogonalLoop=1;jettySize=auto;html=1;exitX=1.003;exitY=0.198;exitDx=0;exitDy=0;entryX=0.499;entryY=-0.009;entryDx=0;entryDy=0;entryPerimeter=0;fillColor=#1ba1e2;strokeColor=#006EAF;exitPerimeter=0;strokeWidth=2;" edge="1" parent="1" source="YQK4Ysnu9C63STyvXHJZ-5" target="JSXAZN5KyDYzW5ihduTY-2">
          <mxGeometry relative="1" as="geometry">
            <Array as="points">
              <mxPoint x="364" y="-1174" />
              <mxPoint x="364" y="-1699" />
              <mxPoint x="1042" y="-1699" />
            </Array>
          </mxGeometry>
        </mxCell>
        <mxCell id="JSXAZN5KyDYzW5ihduTY-33" value="Create, Read, Update, Soft Delete" style="edgeLabel;html=1;align=center;verticalAlign=middle;resizable=0;points=[];" vertex="1" connectable="0" parent="JSXAZN5KyDYzW5ihduTY-32">
          <mxGeometry x="0.417" relative="1" as="geometry">
            <mxPoint x="-16" as="offset" />
          </mxGeometry>
        </mxCell>
        <mxCell id="JSXAZN5KyDYzW5ihduTY-34" style="edgeStyle=orthogonalEdgeStyle;rounded=1;orthogonalLoop=1;jettySize=auto;html=1;exitX=1.003;exitY=0.19;exitDx=0;exitDy=0;entryX=0.339;entryY=0.013;entryDx=0;entryDy=0;entryPerimeter=0;fillColor=#1ba1e2;strokeColor=#006EAF;exitPerimeter=0;strokeWidth=2;" edge="1" parent="1" source="YQK4Ysnu9C63STyvXHJZ-6" target="JSXAZN5KyDYzW5ihduTY-2">
          <mxGeometry relative="1" as="geometry">
            <Array as="points">
              <mxPoint x="409" y="-1144" />
              <mxPoint x="409" y="-1667" />
              <mxPoint x="1016" y="-1667" />
            </Array>
          </mxGeometry>
        </mxCell>
        <mxCell id="JSXAZN5KyDYzW5ihduTY-35" value="Create, Read" style="edgeLabel;html=1;align=center;verticalAlign=middle;resizable=0;points=[];" vertex="1" connectable="0" parent="JSXAZN5KyDYzW5ihduTY-34">
          <mxGeometry x="0.3524" y="1" relative="1" as="geometry">
            <mxPoint x="15" as="offset" />
          </mxGeometry>
        </mxCell>
        <mxCell id="JSXAZN5KyDYzW5ihduTY-36" style="edgeStyle=orthogonalEdgeStyle;rounded=1;orthogonalLoop=1;jettySize=auto;html=1;exitX=1.003;exitY=0.191;exitDx=0;exitDy=0;entryX=0.162;entryY=0.011;entryDx=0;entryDy=0;entryPerimeter=0;fillColor=#1ba1e2;strokeColor=#006EAF;exitPerimeter=0;strokeWidth=2;" edge="1" parent="1" source="JSXAZN5KyDYzW5ihduTY-1" target="JSXAZN5KyDYzW5ihduTY-2">
          <mxGeometry relative="1" as="geometry">
            <Array as="points">
              <mxPoint x="445" y="-1114" />
              <mxPoint x="445" y="-1635" />
              <mxPoint x="987" y="-1635" />
            </Array>
          </mxGeometry>
        </mxCell>
        <mxCell id="JSXAZN5KyDYzW5ihduTY-37" value="None" style="edgeLabel;html=1;align=center;verticalAlign=middle;resizable=0;points=[];" vertex="1" connectable="0" parent="JSXAZN5KyDYzW5ihduTY-36">
          <mxGeometry x="0.5637" y="-1" relative="1" as="geometry">
            <mxPoint x="-98" y="-1" as="offset" />
          </mxGeometry>
        </mxCell>
        <mxCell id="JSXAZN5KyDYzW5ihduTY-40" style="edgeStyle=orthogonalEdgeStyle;orthogonalLoop=1;jettySize=auto;html=1;exitX=1.003;exitY=0.328;exitDx=0;exitDy=0;entryX=0.829;entryY=0.005;entryDx=0;entryDy=0;entryPerimeter=0;strokeColor=#F0A30A;rounded=1;exitPerimeter=0;strokeWidth=2;" edge="1" parent="1" source="YQK4Ysnu9C63STyvXHJZ-7" target="JSXAZN5KyDYzW5ihduTY-4">
          <mxGeometry relative="1" as="geometry">
            <Array as="points">
              <mxPoint x="490" y="-1230" />
              <mxPoint x="490" y="-1494" />
              <mxPoint x="1112" y="-1494" />
              <mxPoint x="1112" y="-1236" />
            </Array>
          </mxGeometry>
        </mxCell>
        <mxCell id="JSXAZN5KyDYzW5ihduTY-41" value="Create, Read, Update, Delete, Soft Delete" style="edgeLabel;html=1;align=center;verticalAlign=middle;resizable=0;points=[];" vertex="1" connectable="0" parent="JSXAZN5KyDYzW5ihduTY-40">
          <mxGeometry x="0.2664" y="3" relative="1" as="geometry">
            <mxPoint x="-35" as="offset" />
          </mxGeometry>
        </mxCell>
        <mxCell id="JSXAZN5KyDYzW5ihduTY-44" style="edgeStyle=orthogonalEdgeStyle;rounded=1;orthogonalLoop=1;jettySize=auto;html=1;exitX=1.003;exitY=0.37;exitDx=0;exitDy=0;entryX=0.659;entryY=0.009;entryDx=0;entryDy=0;entryPerimeter=0;strokeColor=#F0A30A;exitPerimeter=0;strokeWidth=2;" edge="1" parent="1" source="YQK4Ysnu9C63STyvXHJZ-4" target="JSXAZN5KyDYzW5ihduTY-4">
          <mxGeometry relative="1" as="geometry">
            <Array as="points">
              <mxPoint x="533" y="-1199" />
              <mxPoint x="533" y="-1454" />
              <mxPoint x="1085" y="-1454" />
            </Array>
          </mxGeometry>
        </mxCell>
        <mxCell id="JSXAZN5KyDYzW5ihduTY-45" value="Create, Read, Update, Soft Delete" style="edgeLabel;html=1;align=center;verticalAlign=middle;resizable=0;points=[];" vertex="1" connectable="0" parent="JSXAZN5KyDYzW5ihduTY-44">
          <mxGeometry x="0.4411" y="-1" relative="1" as="geometry">
            <mxPoint x="-128" as="offset" />
          </mxGeometry>
        </mxCell>
        <mxCell id="JSXAZN5KyDYzW5ihduTY-46" style="edgeStyle=orthogonalEdgeStyle;rounded=1;orthogonalLoop=1;jettySize=auto;html=1;exitX=1.003;exitY=0.461;exitDx=0;exitDy=0;entryX=0;entryY=0;entryDx=74;entryDy=0;entryPerimeter=0;strokeColor=#F0A30A;exitPerimeter=0;strokeWidth=2;" edge="1" parent="1" source="YQK4Ysnu9C63STyvXHJZ-5" target="JSXAZN5KyDYzW5ihduTY-4">
          <mxGeometry relative="1" as="geometry">
            <Array as="points">
              <mxPoint x="569" y="-1166" />
              <mxPoint x="569" y="-1413" />
              <mxPoint x="1050" y="-1413" />
            </Array>
          </mxGeometry>
        </mxCell>
        <mxCell id="JSXAZN5KyDYzW5ihduTY-50" value="Create, Read, Update, Soft Delete" style="edgeLabel;html=1;align=center;verticalAlign=middle;resizable=0;points=[];" vertex="1" connectable="0" parent="JSXAZN5KyDYzW5ihduTY-46">
          <mxGeometry x="0.2089" y="-1" relative="1" as="geometry">
            <mxPoint x="65" y="-1" as="offset" />
          </mxGeometry>
        </mxCell>
        <mxCell id="JSXAZN5KyDYzW5ihduTY-48" style="edgeStyle=orthogonalEdgeStyle;rounded=1;orthogonalLoop=1;jettySize=auto;html=1;exitX=1.003;exitY=0.408;exitDx=0;exitDy=0;entryX=0.267;entryY=0.009;entryDx=0;entryDy=0;entryPerimeter=0;strokeColor=#F0A30A;exitPerimeter=0;strokeWidth=2;" edge="1" parent="1" source="YQK4Ysnu9C63STyvXHJZ-6" target="JSXAZN5KyDYzW5ihduTY-4">
          <mxGeometry relative="1" as="geometry">
            <Array as="points">
              <mxPoint x="605" y="-1138" />
              <mxPoint x="605" y="-1371" />
              <mxPoint x="1020" y="-1371" />
            </Array>
          </mxGeometry>
        </mxCell>
        <mxCell id="JSXAZN5KyDYzW5ihduTY-51" value="None" style="edgeLabel;html=1;align=center;verticalAlign=middle;resizable=0;points=[];" vertex="1" connectable="0" parent="JSXAZN5KyDYzW5ihduTY-48">
          <mxGeometry x="0.2656" y="2" relative="1" as="geometry">
            <mxPoint as="offset" />
          </mxGeometry>
        </mxCell>
        <mxCell id="JSXAZN5KyDYzW5ihduTY-49" style="edgeStyle=orthogonalEdgeStyle;rounded=1;orthogonalLoop=1;jettySize=auto;html=1;exitX=1.003;exitY=0.406;exitDx=0;exitDy=0;entryX=0.11;entryY=0.009;entryDx=0;entryDy=0;entryPerimeter=0;strokeColor=#F0A30A;exitPerimeter=0;strokeWidth=2;" edge="1" parent="1" source="JSXAZN5KyDYzW5ihduTY-1" target="JSXAZN5KyDYzW5ihduTY-4">
          <mxGeometry relative="1" as="geometry">
            <Array as="points">
              <mxPoint x="637" y="-1108" />
              <mxPoint x="637" y="-1328" />
              <mxPoint x="994" y="-1328" />
            </Array>
          </mxGeometry>
        </mxCell>
        <mxCell id="JSXAZN5KyDYzW5ihduTY-52" value="None" style="edgeLabel;html=1;align=center;verticalAlign=middle;resizable=0;points=[];" vertex="1" connectable="0" parent="JSXAZN5KyDYzW5ihduTY-49">
          <mxGeometry x="0.3344" y="-1" relative="1" as="geometry">
            <mxPoint x="2" as="offset" />
          </mxGeometry>
        </mxCell>
        <mxCell id="JSXAZN5KyDYzW5ihduTY-53" style="edgeStyle=orthogonalEdgeStyle;rounded=1;orthogonalLoop=1;jettySize=auto;html=1;exitX=1.004;exitY=0.496;exitDx=0;exitDy=0;entryX=0.854;entryY=0.003;entryDx=0;entryDy=0;entryPerimeter=0;fillColor=#0050ef;strokeColor=#0050EF;strokeWidth=2;exitPerimeter=0;" edge="1" parent="1" source="YQK4Ysnu9C63STyvXHJZ-7" target="JSXAZN5KyDYzW5ihduTY-3">
          <mxGeometry relative="1" as="geometry">
            <Array as="points">
              <mxPoint x="789" y="-1225" />
              <mxPoint x="789" y="-943" />
              <mxPoint x="1123" y="-943" />
              <mxPoint x="1123" y="-882" />
              <mxPoint x="1124" y="-882" />
            </Array>
          </mxGeometry>
        </mxCell>
        <mxCell id="JSXAZN5KyDYzW5ihduTY-59" value="Create, Read, Update, Delete, Soft Delete" style="edgeLabel;html=1;align=center;verticalAlign=middle;resizable=0;points=[];" vertex="1" connectable="0" parent="JSXAZN5KyDYzW5ihduTY-53">
          <mxGeometry x="0.4112" y="3" relative="1" as="geometry">
            <mxPoint x="20" y="1" as="offset" />
          </mxGeometry>
        </mxCell>
        <mxCell id="JSXAZN5KyDYzW5ihduTY-54" style="edgeStyle=orthogonalEdgeStyle;rounded=1;orthogonalLoop=1;jettySize=auto;html=1;exitX=1.003;exitY=0.5;exitDx=0;exitDy=0;entryX=0.653;entryY=-0.004;entryDx=0;entryDy=0;entryPerimeter=0;fillColor=#0050ef;strokeColor=#0050EF;strokeWidth=2;exitPerimeter=0;" edge="1" parent="1" source="YQK4Ysnu9C63STyvXHJZ-4" target="JSXAZN5KyDYzW5ihduTY-3">
          <mxGeometry relative="1" as="geometry">
            <Array as="points">
              <mxPoint x="753" y="-1195" />
              <mxPoint x="753" y="-900" />
              <mxPoint x="1091" y="-900" />
            </Array>
          </mxGeometry>
        </mxCell>
        <mxCell id="JSXAZN5KyDYzW5ihduTY-60" value="Create, Read, Update, Soft Delete" style="edgeLabel;html=1;align=center;verticalAlign=middle;resizable=0;points=[];" vertex="1" connectable="0" parent="JSXAZN5KyDYzW5ihduTY-54">
          <mxGeometry x="0.4726" y="-1" relative="1" as="geometry">
            <mxPoint x="19" y="-1" as="offset" />
          </mxGeometry>
        </mxCell>
        <mxCell id="JSXAZN5KyDYzW5ihduTY-55" style="edgeStyle=orthogonalEdgeStyle;rounded=1;orthogonalLoop=1;jettySize=auto;html=1;exitX=1.003;exitY=0.749;exitDx=0;exitDy=0;entryX=0;entryY=0;entryDx=74;entryDy=0;entryPerimeter=0;exitPerimeter=0;fillColor=#0050ef;strokeColor=#0050EF;strokeWidth=2;" edge="1" parent="1" source="YQK4Ysnu9C63STyvXHJZ-5" target="JSXAZN5KyDYzW5ihduTY-3">
          <mxGeometry relative="1" as="geometry">
            <Array as="points">
              <mxPoint x="713" y="-1158" />
              <mxPoint x="713" y="-858" />
              <mxPoint x="1057" y="-858" />
            </Array>
          </mxGeometry>
        </mxCell>
        <mxCell id="JSXAZN5KyDYzW5ihduTY-61" value="Create, Read, Update, Soft Delete" style="edgeLabel;html=1;align=center;verticalAlign=middle;resizable=0;points=[];" vertex="1" connectable="0" parent="JSXAZN5KyDYzW5ihduTY-55">
          <mxGeometry x="0.5405" y="-2" relative="1" as="geometry">
            <mxPoint x="34" y="-2" as="offset" />
          </mxGeometry>
        </mxCell>
        <mxCell id="JSXAZN5KyDYzW5ihduTY-56" style="edgeStyle=orthogonalEdgeStyle;rounded=1;orthogonalLoop=1;jettySize=auto;html=1;exitX=1.003;exitY=0.752;exitDx=0;exitDy=0;entryX=0.281;entryY=-0.025;entryDx=0;entryDy=0;entryPerimeter=0;exitPerimeter=0;fillColor=#0050ef;strokeColor=#0050EF;strokeWidth=2;" edge="1" parent="1" source="YQK4Ysnu9C63STyvXHJZ-6" target="JSXAZN5KyDYzW5ihduTY-3">
          <mxGeometry relative="1" as="geometry">
            <Array as="points">
              <mxPoint x="677" y="-1127" />
              <mxPoint x="677" y="-812" />
              <mxPoint x="1029" y="-812" />
            </Array>
          </mxGeometry>
        </mxCell>
        <mxCell id="JSXAZN5KyDYzW5ihduTY-62" value="Read" style="edgeLabel;html=1;align=center;verticalAlign=middle;resizable=0;points=[];" vertex="1" connectable="0" parent="JSXAZN5KyDYzW5ihduTY-56">
          <mxGeometry x="0.5999" y="2" relative="1" as="geometry">
            <mxPoint x="-8" as="offset" />
          </mxGeometry>
        </mxCell>
        <mxCell id="JSXAZN5KyDYzW5ihduTY-57" style="edgeStyle=orthogonalEdgeStyle;rounded=1;orthogonalLoop=1;jettySize=auto;html=1;exitX=1.003;exitY=0.749;exitDx=0;exitDy=0;entryX=0.12;entryY=-0.025;entryDx=0;entryDy=0;entryPerimeter=0;exitPerimeter=0;fillColor=#0050ef;strokeColor=#0050EF;strokeWidth=2;" edge="1" parent="1" source="JSXAZN5KyDYzW5ihduTY-1" target="JSXAZN5KyDYzW5ihduTY-3">
          <mxGeometry relative="1" as="geometry">
            <Array as="points">
              <mxPoint x="641" y="-1098" />
              <mxPoint x="641" y="-772" />
              <mxPoint x="1003" y="-772" />
            </Array>
          </mxGeometry>
        </mxCell>
        <mxCell id="JSXAZN5KyDYzW5ihduTY-63" value="None" style="edgeLabel;html=1;align=center;verticalAlign=middle;resizable=0;points=[];" vertex="1" connectable="0" parent="JSXAZN5KyDYzW5ihduTY-57">
          <mxGeometry x="0.68" y="-2" relative="1" as="geometry">
            <mxPoint x="2" as="offset" />
          </mxGeometry>
        </mxCell>
        <mxCell id="JSXAZN5KyDYzW5ihduTY-64" style="edgeStyle=orthogonalEdgeStyle;rounded=1;orthogonalLoop=1;jettySize=auto;html=1;exitX=0.002;exitY=0.162;exitDx=0;exitDy=0;entryX=0.088;entryY=-0.009;entryDx=0;entryDy=0;entryPerimeter=0;exitPerimeter=0;strokeColor=#76608A;strokeWidth=2;" edge="1" parent="1" source="YQK4Ysnu9C63STyvXHJZ-7" target="JSXAZN5KyDYzW5ihduTY-5">
          <mxGeometry relative="1" as="geometry">
            <Array as="points">
              <mxPoint x="78" y="-1235" />
              <mxPoint x="78" y="-1832" />
              <mxPoint x="-864" y="-1832" />
            </Array>
          </mxGeometry>
        </mxCell>
        <mxCell id="JSXAZN5KyDYzW5ihduTY-66" style="edgeStyle=orthogonalEdgeStyle;rounded=1;orthogonalLoop=1;jettySize=auto;html=1;exitX=0;exitY=0.15;exitDx=0;exitDy=0;entryX=0.246;entryY=0.002;entryDx=0;entryDy=0;entryPerimeter=0;exitPerimeter=0;strokeColor=#76608A;strokeWidth=2;" edge="1" parent="1" source="YQK4Ysnu9C63STyvXHJZ-4" target="JSXAZN5KyDYzW5ihduTY-5">
          <mxGeometry relative="1" as="geometry">
            <Array as="points">
              <mxPoint x="46" y="-1206" />
              <mxPoint x="46" y="-1799" />
              <mxPoint x="-837" y="-1799" />
            </Array>
          </mxGeometry>
        </mxCell>
        <mxCell id="JSXAZN5KyDYzW5ihduTY-67" style="edgeStyle=orthogonalEdgeStyle;rounded=1;orthogonalLoop=1;jettySize=auto;html=1;exitX=-0.001;exitY=0.188;exitDx=0;exitDy=0;entryX=0;entryY=0;entryDx=74;entryDy=0;entryPerimeter=0;exitPerimeter=0;strokeColor=#76608A;strokeWidth=2;" edge="1" parent="1" source="YQK4Ysnu9C63STyvXHJZ-5" target="JSXAZN5KyDYzW5ihduTY-5">
          <mxGeometry relative="1" as="geometry">
            <Array as="points">
              <mxPoint x="15" y="-1174" />
              <mxPoint x="15" y="-1759" />
              <mxPoint x="-804" y="-1759" />
            </Array>
          </mxGeometry>
        </mxCell>
        <mxCell id="JSXAZN5KyDYzW5ihduTY-68" style="edgeStyle=orthogonalEdgeStyle;rounded=1;orthogonalLoop=1;jettySize=auto;html=1;exitX=0.001;exitY=0.24;exitDx=0;exitDy=0;entryX=0.63;entryY=0.007;entryDx=0;entryDy=0;entryPerimeter=0;exitPerimeter=0;strokeColor=#76608A;strokeWidth=2;" edge="1" parent="1" source="YQK4Ysnu9C63STyvXHJZ-6" target="JSXAZN5KyDYzW5ihduTY-5">
          <mxGeometry relative="1" as="geometry">
            <mxPoint x="-659.3448275862067" y="-1545.1724137931035" as="targetPoint" />
            <Array as="points">
              <mxPoint x="-18" y="-1143" />
              <mxPoint x="-18" y="-1716" />
              <mxPoint x="-774" y="-1716" />
            </Array>
          </mxGeometry>
        </mxCell>
        <mxCell id="JSXAZN5KyDYzW5ihduTY-69" style="edgeStyle=orthogonalEdgeStyle;rounded=1;orthogonalLoop=1;jettySize=auto;html=1;exitX=0;exitY=0.205;exitDx=0;exitDy=0;entryX=0.791;entryY=0;entryDx=0;entryDy=0;entryPerimeter=0;exitPerimeter=0;strokeColor=#76608A;strokeWidth=2;" edge="1" parent="1" source="JSXAZN5KyDYzW5ihduTY-1" target="JSXAZN5KyDYzW5ihduTY-5">
          <mxGeometry relative="1" as="geometry">
            <Array as="points">
              <mxPoint x="-51" y="-1114" />
              <mxPoint x="-51" y="-1679" />
              <mxPoint x="-747" y="-1679" />
            </Array>
          </mxGeometry>
        </mxCell>
        <mxCell id="JSXAZN5KyDYzW5ihduTY-70" style="edgeStyle=orthogonalEdgeStyle;rounded=1;orthogonalLoop=1;jettySize=auto;html=1;exitX=0;exitY=0.5;exitDx=0;exitDy=0;entryX=0.113;entryY=-0.012;entryDx=0;entryDy=0;entryPerimeter=0;strokeColor=#E3C800;strokeWidth=2;" edge="1" parent="1" source="YQK4Ysnu9C63STyvXHJZ-7" target="JSXAZN5KyDYzW5ihduTY-6">
          <mxGeometry relative="1" as="geometry">
            <Array as="points">
              <mxPoint x="-86" y="-1225" />
              <mxPoint x="-86" y="-1438" />
              <mxPoint x="-859" y="-1438" />
            </Array>
          </mxGeometry>
        </mxCell>
        <mxCell id="JSXAZN5KyDYzW5ihduTY-71" style="edgeStyle=orthogonalEdgeStyle;rounded=1;orthogonalLoop=1;jettySize=auto;html=1;exitX=0;exitY=0.5;exitDx=0;exitDy=0;entryX=0.293;entryY=-0.012;entryDx=0;entryDy=0;entryPerimeter=0;strokeColor=#E3C800;strokeWidth=2;" edge="1" parent="1" source="YQK4Ysnu9C63STyvXHJZ-4" target="JSXAZN5KyDYzW5ihduTY-6">
          <mxGeometry relative="1" as="geometry">
            <Array as="points">
              <mxPoint x="-122" y="-1195" />
              <mxPoint x="-122" y="-1404" />
              <mxPoint x="-830" y="-1404" />
            </Array>
          </mxGeometry>
        </mxCell>
        <mxCell id="JSXAZN5KyDYzW5ihduTY-72" style="edgeStyle=orthogonalEdgeStyle;rounded=1;orthogonalLoop=1;jettySize=auto;html=1;exitX=0;exitY=0.5;exitDx=0;exitDy=0;entryX=0.485;entryY=-0.003;entryDx=0;entryDy=0;entryPerimeter=0;strokeColor=#E3C800;strokeWidth=2;" edge="1" parent="1" source="YQK4Ysnu9C63STyvXHJZ-5" target="JSXAZN5KyDYzW5ihduTY-6">
          <mxGeometry relative="1" as="geometry">
            <Array as="points">
              <mxPoint x="-165" y="-1165" />
              <mxPoint x="-165" y="-1366" />
              <mxPoint x="-798" y="-1366" />
            </Array>
          </mxGeometry>
        </mxCell>
        <mxCell id="JSXAZN5KyDYzW5ihduTY-73" style="edgeStyle=orthogonalEdgeStyle;rounded=1;orthogonalLoop=1;jettySize=auto;html=1;exitX=0;exitY=0.5;exitDx=0;exitDy=0;entryX=0.648;entryY=-0.003;entryDx=0;entryDy=0;entryPerimeter=0;strokeColor=#E3C800;strokeWidth=2;" edge="1" parent="1" source="YQK4Ysnu9C63STyvXHJZ-6" target="JSXAZN5KyDYzW5ihduTY-6">
          <mxGeometry relative="1" as="geometry">
            <Array as="points">
              <mxPoint x="-203" y="-1135" />
              <mxPoint x="-203" y="-1333" />
              <mxPoint x="-771" y="-1333" />
            </Array>
          </mxGeometry>
        </mxCell>
        <mxCell id="JSXAZN5KyDYzW5ihduTY-74" style="edgeStyle=orthogonalEdgeStyle;rounded=1;orthogonalLoop=1;jettySize=auto;html=1;exitX=0;exitY=0.5;exitDx=0;exitDy=0;entryX=0.794;entryY=-0.003;entryDx=0;entryDy=0;entryPerimeter=0;strokeColor=#E3C800;strokeWidth=2;" edge="1" parent="1" source="JSXAZN5KyDYzW5ihduTY-1" target="JSXAZN5KyDYzW5ihduTY-6">
          <mxGeometry relative="1" as="geometry">
            <Array as="points">
              <mxPoint x="-243" y="-1105" />
              <mxPoint x="-243" y="-1297" />
              <mxPoint x="-747" y="-1297" />
            </Array>
          </mxGeometry>
        </mxCell>
        <mxCell id="JSXAZN5KyDYzW5ihduTY-75" style="edgeStyle=orthogonalEdgeStyle;rounded=1;orthogonalLoop=1;jettySize=auto;html=1;exitX=0;exitY=0.787;exitDx=0;exitDy=0;entryX=0.132;entryY=0.03;entryDx=0;entryDy=0;entryPerimeter=0;exitPerimeter=0;strokeColor=#FA6800;strokeWidth=2;" edge="1" parent="1" source="YQK4Ysnu9C63STyvXHJZ-7" target="JSXAZN5KyDYzW5ihduTY-7">
          <mxGeometry relative="1" as="geometry">
            <Array as="points">
              <mxPoint x="-478" y="-1216" />
              <mxPoint x="-478" y="-1020" />
              <mxPoint x="-856" y="-1020" />
            </Array>
          </mxGeometry>
        </mxCell>
        <mxCell id="JSXAZN5KyDYzW5ihduTY-76" style="edgeStyle=orthogonalEdgeStyle;rounded=1;orthogonalLoop=1;jettySize=auto;html=1;exitX=-0.001;exitY=0.761;exitDx=0;exitDy=0;entryX=0.313;entryY=-0.015;entryDx=0;entryDy=0;entryPerimeter=0;exitPerimeter=0;strokeColor=#FA6800;strokeWidth=2;" edge="1" parent="1" source="YQK4Ysnu9C63STyvXHJZ-4" target="JSXAZN5KyDYzW5ihduTY-7">
          <mxGeometry relative="1" as="geometry">
            <Array as="points">
              <mxPoint x="-433" y="-1187" />
              <mxPoint x="-433" y="-984" />
              <mxPoint x="-826" y="-984" />
            </Array>
          </mxGeometry>
        </mxCell>
        <mxCell id="JSXAZN5KyDYzW5ihduTY-77" style="edgeStyle=orthogonalEdgeStyle;rounded=1;orthogonalLoop=1;jettySize=auto;html=1;exitX=0.001;exitY=0.784;exitDx=0;exitDy=0;entryX=0.503;entryY=-0.009;entryDx=0;entryDy=0;entryPerimeter=0;exitPerimeter=0;strokeColor=#FA6800;strokeWidth=2;" edge="1" parent="1" source="YQK4Ysnu9C63STyvXHJZ-5" target="JSXAZN5KyDYzW5ihduTY-7">
          <mxGeometry relative="1" as="geometry">
            <Array as="points">
              <mxPoint x="-392" y="-1157" />
              <mxPoint x="-392" y="-948" />
              <mxPoint x="-795" y="-948" />
            </Array>
          </mxGeometry>
        </mxCell>
        <mxCell id="JSXAZN5KyDYzW5ihduTY-79" style="edgeStyle=orthogonalEdgeStyle;rounded=1;orthogonalLoop=1;jettySize=auto;html=1;exitX=0.001;exitY=0.784;exitDx=0;exitDy=0;entryX=0.675;entryY=0.002;entryDx=0;entryDy=0;entryPerimeter=0;exitPerimeter=0;strokeColor=#FA6800;strokeWidth=2;" edge="1" parent="1" source="YQK4Ysnu9C63STyvXHJZ-6" target="JSXAZN5KyDYzW5ihduTY-7">
          <mxGeometry relative="1" as="geometry">
            <Array as="points">
              <mxPoint x="-352" y="-1127" />
              <mxPoint x="-352" y="-918" />
              <mxPoint x="-767" y="-918" />
            </Array>
          </mxGeometry>
        </mxCell>
        <mxCell id="JSXAZN5KyDYzW5ihduTY-80" style="edgeStyle=orthogonalEdgeStyle;rounded=1;orthogonalLoop=1;jettySize=auto;html=1;exitX=0.002;exitY=0.791;exitDx=0;exitDy=0;entryX=0.811;entryY=0.013;entryDx=0;entryDy=0;entryPerimeter=0;exitPerimeter=0;strokeColor=#FA6800;strokeWidth=2;" edge="1" parent="1" source="JSXAZN5KyDYzW5ihduTY-1" target="JSXAZN5KyDYzW5ihduTY-7">
          <mxGeometry relative="1" as="geometry">
            <Array as="points">
              <mxPoint x="-317" y="-1096" />
              <mxPoint x="-317" y="-889" />
              <mxPoint x="-744" y="-889" />
            </Array>
          </mxGeometry>
        </mxCell>
      </root>
    </mxGraphModel>
  </diagram>
</mxfile>
